<svg width="30" height="30" viewBox="0 0 30 30" fill="none" xmlns="http://www.w3.org/2000/svg">
<path d="M28.7586 4.76983L28.7584 4.76999L18.8912 14.6466L18.5378 15.0003L18.8915 15.3537L28.768 25.2208C28.768 25.2209 28.7681 25.2209 28.7681 25.221C29.744 26.197 29.744 27.7826 28.768 28.7586C27.7919 29.7346 26.2062 29.7346 25.2302 28.7586L25.23 28.7584L15.3534 18.8912L14.9997 18.5378L14.6463 18.8915L4.7792 28.768C3.80313 29.744 2.21748 29.744 1.24142 28.768C0.265355 27.7919 0.265355 26.2062 1.24142 25.2302L1.24159 25.23L11.1088 15.3534L11.4622 14.9997L11.1085 14.6463L1.23205 4.7792C1.23199 4.77914 1.23194 4.77908 1.23188 4.77903C0.255984 3.80295 0.25604 2.21743 1.23205 1.24142C2.20811 0.265355 3.79376 0.265355 4.76983 1.24142L4.76999 1.24159L14.6466 11.1088L15.0003 11.4622L15.3537 11.1085L25.2208 1.23205C25.2209 1.23199 25.2209 1.23194 25.221 1.23188C26.197 0.255984 27.7826 0.25604 28.7586 1.23205C29.7346 2.20811 29.7346 3.79376 28.7586 4.76983Z" fill="#EFECE9" stroke="#FF5C00"/>
</svg>
