<svg width="50" height="38" viewBox="0 0 50 38" fill="none" xmlns="http://www.w3.org/2000/svg">
<path d="M0 3.375C0 1.64648 1.59598 0.25 3.57143 0.25H46.4286C48.404 0.25 50 1.64648 50 3.375C50 5.10352 48.404 6.5 46.4286 6.5H3.57143C1.59598 6.5 0 5.10352 0 3.375ZM0 19C0 17.2715 1.59598 15.875 3.57143 15.875H46.4286C48.404 15.875 50 17.2715 50 19C50 20.7285 48.404 22.125 46.4286 22.125H3.57143C1.59598 22.125 0 20.7285 0 19ZM50 34.625C50 36.3535 48.404 37.75 46.4286 37.75H3.57143C1.59598 37.75 0 36.3535 0 34.625C0 32.8965 1.59598 31.5 3.57143 31.5H46.4286C48.404 31.5 50 32.8965 50 34.625Z" fill="#252020"/>
</svg>
