<svg width="500" height="500" viewBox="0 0 500 500" fill="none" xmlns="http://www.w3.org/2000/svg">
<path d="M500 250C500 388.071 388.071 500 250 500C111.929 500 0 388.071 0 250C0 111.929 111.929 0 250 0C388.071 0 500 111.929 500 250ZM44.6033 250C44.6033 363.437 136.563 455.397 250 455.397C363.437 455.397 455.397 363.437 455.397 250C455.397 136.563 363.437 44.6033 250 44.6033C136.563 44.6033 44.6033 136.563 44.6033 250Z" fill="#131669"/>
<path d="M400 250C400 332.843 332.843 400 250 400C167.157 400 100 332.843 100 250C100 167.157 167.157 100 250 100C332.843 100 400 167.157 400 250ZM143.528 250C143.528 308.803 191.197 356.472 250 356.472C308.803 356.472 356.472 308.803 356.472 250C356.472 191.197 308.803 143.528 250 143.528C191.197 143.528 143.528 191.197 143.528 250Z" fill="#282ECE"/>
<circle cx="250" cy="250" r="50" fill="#ED2082"/>
</svg>
