<svg width="60" height="60" viewBox="0 0 60 60" fill="none" xmlns="http://www.w3.org/2000/svg">
<g clip-path="url(#clip0_4_40)">
<path d="M48.9664 46.5766L14.257 9.61678C13.5481 8.86193 12.3615 8.82467 11.6066 9.53356L10.9232 10.1753C10.1684 10.8842 10.1311 12.0708 10.84 12.8257L45.5494 49.7855C46.2583 50.5404 47.4449 50.5776 48.1998 49.8687L48.8832 49.227C49.638 48.5181 49.6753 47.3315 48.9664 46.5766Z" fill="#ED2082"/>
<path d="M10.0394 45.6565L46.3878 10.3072C47.1301 9.58526 48.3172 9.60181 49.0392 10.3442L49.6928 11.0163C50.4147 11.7586 50.3982 12.9457 49.6558 13.6676L13.3074 49.0169C12.5651 49.7389 11.378 49.7223 10.656 48.98L10.0024 48.3079C9.28047 47.5655 9.29701 46.3784 10.0394 45.6565Z" fill="#ED2082"/>
</g>
<defs>
<clipPath id="clip0_4_40">
<rect width="60" height="60" fill="white"/>
</clipPath>
</defs>
</svg>
