<svg width="60" height="60" viewBox="0 0 60 60" fill="none" xmlns="http://www.w3.org/2000/svg">
<path d="M8.4375 13.5938H51.5625C52.598 13.5938 53.4375 14.4332 53.4375 15.4688V16.4062C53.4375 17.4418 52.598 18.2812 51.5625 18.2812H8.4375C7.40197 18.2812 6.5625 17.4418 6.5625 16.4062V15.4688C6.5625 14.4332 7.40197 13.5938 8.4375 13.5938Z" fill="white"/>
<path d="M22.5 27.6562H51.5625C52.598 27.6562 53.4375 28.4957 53.4375 29.5312V30.4688C53.4375 31.5043 52.598 32.3438 51.5625 32.3438H22.5C21.4645 32.3438 20.625 31.5043 20.625 30.4688V29.5312C20.625 28.4957 21.4645 27.6562 22.5 27.6562Z" fill="white"/>
<path d="M8.4375 41.7188H51.5625C52.598 41.7188 53.4375 42.5582 53.4375 43.5938V44.5312C53.4375 45.5668 52.598 46.4062 51.5625 46.4062H8.4375C7.40197 46.4062 6.5625 45.5668 6.5625 44.5312V43.5938C6.5625 42.5582 7.40197 41.7188 8.4375 41.7188Z" fill="white"/>
</svg>
