<svg width="60" height="80" viewBox="0 0 60 80" fill="none" xmlns="http://www.w3.org/2000/svg">
<mask id="path-1-inside-1_36_53" fill="white">
<path d="M12.8248 32.6173C12.8092 32.5349 12.7927 32.414 12.7332 32.2509C12.7139 32.1978 12.6599 32.0586 12.55 31.8845C12.4071 31.6583 12.3191 31.6116 12.092 31.3349C11.9445 31.1554 11.8703 31.0665 11.8172 30.9685C11.6486 30.6608 11.7054 30.4592 11.634 30.0525C11.5625 29.6449 11.4828 29.7237 11.3592 29.2281C11.3381 29.1439 11.3335 29.1127 11.176 28.0373C11.1366 27.768 11.1109 27.5949 10.9928 27.3961C10.8892 27.223 10.8215 27.2083 10.7179 27.0297C10.6016 26.8282 10.6089 26.71 10.5347 26.3885C10.4486 26.0185 10.3992 25.8032 10.2599 25.5641C10.1244 25.3315 9.85324 24.988 9.80195 24.9229C9.74974 24.857 9.65356 24.737 9.61875 24.5565C9.60134 24.4658 9.60409 24.3816 9.61875 24.2817C9.67371 23.9199 9.82027 23.853 9.89355 23.5489C9.96225 23.265 9.91187 22.9938 9.89355 22.9077C9.85416 22.7245 9.78821 22.5935 9.80195 22.3581C9.81202 22.1877 9.85324 22.1218 9.89355 22.0833C9.96774 22.0128 10.0713 22.0018 10.1683 21.9917C10.3131 21.9771 10.347 22.0109 10.4431 21.9917C10.521 21.9761 10.6025 21.934 10.7179 21.8085C10.8627 21.651 10.9241 21.5117 11.0844 21.1673C11.3335 20.6324 11.372 20.5664 11.3592 20.4345C11.3546 20.385 11.3381 20.2898 11.3592 20.1597C11.3729 20.0727 11.3995 20.0012 11.4508 19.8849C11.5176 19.7338 11.5515 19.6587 11.634 19.5185C11.8181 19.2061 11.6056 18.63 11.5424 17.6865C11.514 17.2596 11.5304 16.9766 11.4508 16.4957C11.4315 16.3812 11.4077 16.2337 11.3592 16.0377C11.2749 15.6942 11.2309 15.664 11.176 15.3965C11.099 15.0191 11.1714 15.0026 11.0844 14.8469C10.9799 14.6591 10.8572 14.6518 10.7179 14.3889C10.6712 14.3019 10.6318 14.224 10.6263 14.1141C10.6199 13.9794 10.6694 13.8622 10.7179 13.7477C10.772 13.6195 10.7867 13.635 10.8096 13.5645C10.881 13.3492 10.7729 13.1285 10.7179 13.0149C10.6392 12.8537 10.5457 12.7557 10.4431 12.6485C10.2609 12.458 10.0822 12.3407 9.98515 12.2821C9.71768 12.1218 9.44929 12.0393 9.34395 12.0073C9.13052 11.9432 9.1067 11.9597 9.06915 11.9157C8.92259 11.7407 9.25601 11.4247 9.34395 10.8165C9.36501 10.6736 9.41356 10.3017 9.25235 9.90048C9.16166 9.67514 9.04258 9.535 8.88595 9.35088C8.64595 9.06875 8.54336 9.03944 8.06154 8.61808C7.63927 8.24893 7.61545 8.18206 7.32874 7.97688C7.09608 7.81016 6.92387 7.68742 6.68754 7.61048C6.29732 7.48315 6.10405 7.60315 5.67994 7.61048C4.63936 7.6288 4.40944 6.93447 3.57313 7.06087C3.41375 7.08469 3.15818 7.14973 2.84033 7.06087C2.61866 6.99859 2.60675 6.92805 2.38233 6.87767C2.10661 6.81539 2.02142 6.89783 1.64953 6.87767C1.45259 6.8676 1.31427 6.83554 1.09992 6.78607C0.669404 6.68714 0.570475 6.59921 0.275523 6.60287C0.117054 6.6047 0.010798 6.63218 0.000722011 6.60287C-0.016682 6.55158 0.284683 6.4041 0.458723 6.32807C0.912144 6.1293 1.29778 6.06518 1.37473 6.05327C2.22111 5.91862 2.37866 6.07617 3.29833 5.96167C3.72152 5.90854 3.93312 5.88289 4.21433 5.77847C4.44333 5.69328 4.65218 5.58336 5.13034 5.41207C5.27232 5.36169 5.34285 5.33604 5.40514 5.32047C5.79627 5.22246 6.10954 5.28749 6.32114 5.32047C6.68113 5.37635 7.04936 5.35711 7.78674 5.32047C8.22642 5.29849 8.56076 5.25818 8.79434 5.22887C9.29082 5.1675 9.54455 5.13635 9.89355 5.04567C10.1638 4.97605 10.5027 4.88537 10.9012 4.67927C11.2034 4.52263 11.1302 4.51164 11.634 4.22127C11.8831 4.07745 12.1204 3.91166 12.3668 3.76327C12.5417 3.65793 12.7038 3.56266 12.7332 3.39686C12.7561 3.26679 12.6837 3.17061 12.7332 3.12206C12.7964 3.06069 12.9759 3.15504 13.0996 3.21366C13.3881 3.34923 13.7105 3.39503 14.0156 3.48846C14.5569 3.65426 14.5606 3.64235 14.9316 3.76327C15.3685 3.90616 15.3254 3.90983 15.4812 3.94647C15.8979 4.04448 16.0482 3.97761 16.4888 4.03807C16.7452 4.07379 16.9165 4.12692 17.2216 4.22127C17.8408 4.41363 17.8802 4.51988 18.4124 4.67927C18.6661 4.7553 18.9885 4.84873 19.42 4.86247C19.7864 4.87346 20.0667 4.82216 20.336 4.77087C20.8297 4.67744 20.8132 4.61332 21.3436 4.49607C21.9216 4.36874 22.2101 4.30462 22.5344 4.31287C22.8128 4.32019 23.0244 4.36325 23.1756 4.22127C23.2571 4.14432 23.2644 4.06738 23.4504 3.85487C23.542 3.75044 23.6052 3.69548 23.6336 3.67167C23.7151 3.60388 23.793 3.55258 23.9084 3.48846C24.2665 3.28969 24.2986 3.3419 24.458 3.21366C24.458 3.21366 24.5642 3.12756 24.7328 2.93886C24.7328 2.93886 24.7942 2.93886 24.916 2.93886C25.1294 2.93886 25.3438 2.93886 25.5572 2.93886C25.7706 2.93886 25.985 2.94986 26.1984 2.93886C26.5996 2.91871 26.7104 2.87016 26.9312 2.93886C27.0439 2.97367 27.075 3.00482 27.206 3.03046C27.3736 3.06344 27.4799 3.04329 27.664 3.03046C27.8472 3.01856 28.0304 3.03046 28.2136 3.03046C28.427 3.03046 28.6414 3.02772 28.8548 3.03046C29.2047 3.03596 29.2496 3.04604 29.4044 3.03046C29.6004 3.01031 29.7442 2.97184 29.8624 2.93886C30.1656 2.85551 30.2022 2.80238 30.5952 2.66406C30.9735 2.53124 30.9634 2.57155 31.1448 2.48086C31.2758 2.41583 31.415 2.31507 31.6944 2.11446C31.8813 1.97981 31.9738 1.91294 32.0608 1.83966C32.2724 1.66012 32.2779 1.61249 32.5188 1.38166C32.7652 1.14533 32.8889 1.02717 33.0684 0.923658C33.3148 0.781678 33.4165 0.798166 33.5264 0.648857C33.5795 0.577409 33.6226 0.479397 33.7096 0.282456C33.7774 0.129484 33.8067 0.0406316 33.8928 0.0076555C33.9313 -0.00700053 33.945 0.00307549 34.076 0.0076555C34.2748 0.0149835 34.2931 -0.00700053 34.3508 0.0076555C34.48 0.0397156 34.5166 0.18078 34.6256 0.374056C34.6256 0.374056 34.8106 0.701069 35.0836 0.923658C35.254 1.06289 35.4106 1.11877 35.6332 1.19846C35.876 1.28548 36.0729 1.31845 36.4576 1.38166C36.8533 1.4467 36.8561 1.42471 37.0072 1.47326C37.1217 1.5099 37.391 1.60974 37.6484 1.83966C37.7977 1.9734 37.8509 2.06774 38.0148 2.29766C38.4142 2.85734 38.6139 3.13764 38.8392 3.30526C39.1159 3.51045 39.3458 3.56724 39.4804 3.85487C39.5253 3.95105 39.5107 3.96753 39.572 4.12967C39.6077 4.22401 39.7259 4.53637 39.9384 4.77087C40.2618 5.12811 40.5384 5.01452 40.6712 5.32047C40.6767 5.33421 40.7912 5.60718 40.6712 5.77847C40.6502 5.80778 40.6263 5.82885 40.5796 5.87007C40.4532 5.98091 40.3351 6.0377 40.3048 6.05327C40.1839 6.11464 40.0712 6.21632 39.8468 6.41967C39.5913 6.65142 39.4493 6.85844 39.2972 7.06087C38.9043 7.58483 38.8942 7.48681 38.198 8.34328C38.0542 8.52098 37.838 8.7912 37.6484 9.16768C37.5761 9.31241 37.5119 9.43973 37.4652 9.62568C37.4038 9.86751 37.4414 9.92979 37.3736 10.1753C37.3434 10.2834 37.3297 10.2962 37.1904 10.6333C37.0924 10.8705 37.0439 10.9896 37.0072 11.0913C36.955 11.2378 36.8433 11.5493 36.824 11.9157C36.8149 12.0952 36.8478 12.3105 36.9156 12.7401C36.9816 13.1633 37.0191 13.2457 37.0072 13.4729C36.9953 13.7056 36.9495 13.7449 36.9156 14.0225C36.8991 14.1562 36.8945 14.2698 36.9156 14.7553C36.9422 15.3571 36.9559 15.664 37.0072 15.9461C37.0649 16.2639 37.0933 16.4224 37.1904 16.5873C37.3132 16.7961 37.4213 16.841 37.4652 17.0453C37.4808 17.1186 37.4689 17.1213 37.4652 17.5033C37.4652 17.5033 37.4652 17.6251 37.4652 17.8697C37.4652 18.3277 37.4652 18.3277 37.4652 18.3277C37.4561 19.0358 37.228 19.1952 37.3736 19.5185C37.4249 19.6321 37.4872 19.688 37.5568 19.8849C37.5816 19.9545 37.5999 20.0196 37.6484 20.2513C37.6768 20.386 37.718 20.5792 37.74 20.7093C37.7702 20.8879 37.7959 21.1206 37.8316 22.2665C37.8408 22.567 37.8435 22.6805 37.9232 22.8161C38.0029 22.9517 38.1202 23.0405 38.1064 23.1825C38.0991 23.2576 38.0625 23.2805 38.0148 23.3657C37.9086 23.5562 37.958 23.6863 37.9232 24.0069C37.8921 24.2964 37.8472 24.2414 37.8316 24.4649C37.8041 24.8634 37.9489 25.0218 37.8316 25.1977C37.7648 25.2976 37.7135 25.2536 37.5568 25.3809C37.2738 25.6118 37.2051 25.9488 37.1904 26.0221C37.1483 26.2328 37.1776 26.3995 37.1904 26.4801C37.2316 26.7485 37.1877 27.1167 37.0988 27.8541C36.9788 28.8507 36.8158 28.8892 36.6408 30.0525C36.5181 30.8687 36.541 31.2296 36.5492 31.3349C36.5877 31.8506 36.7123 32.2537 36.824 32.6173C37.0127 33.2301 37.0768 33.1715 37.282 33.8081C37.282 33.8081 37.4322 34.2735 37.6484 34.6325C37.6988 34.7159 37.7217 34.7498 37.7217 34.7498C37.7858 34.8414 37.8124 34.8579 37.8316 34.9073C37.8618 34.987 37.8389 35.0631 37.8316 35.0905C37.7849 35.2737 37.8673 35.6401 37.9232 36.0065C37.9919 36.4545 38.0002 36.7622 38.0148 37.289C38.0249 37.6608 38.0139 37.8312 37.9232 38.0218C37.8655 38.1427 37.762 38.2572 37.5568 38.4798C37.3461 38.7097 37.2133 38.8544 37.0072 39.0294C36.6362 39.3454 36.519 39.3435 36.366 39.579C36.344 39.6128 36.2341 39.786 36.1828 40.037C36.1443 40.2257 36.1572 40.407 36.1828 40.7698C36.203 41.0491 36.2213 41.1105 36.1828 41.2278C36.126 41.4027 36.0143 41.4852 35.908 41.5942C35.7889 41.7169 35.7651 41.781 35.45 42.4186C35.3612 42.5981 35.1651 42.9947 34.992 43.3346C34.731 43.8466 34.5963 44.1077 34.4424 44.3422C34.1804 44.7406 34.1392 44.7049 34.076 44.8918C33.9716 45.1995 34.0595 45.3635 33.9844 45.8994C33.9496 46.1458 33.9322 46.1009 33.8928 46.3574C33.814 46.8676 33.8488 47.2551 33.8928 47.7314C33.9175 48.0044 33.9313 48.1445 33.9844 48.281C34.054 48.4605 34.131 48.542 34.1676 48.739C34.1942 48.8819 34.1823 48.9955 34.1676 49.1054C34.109 49.5542 34.0311 49.7438 33.9844 50.0214C33.9588 50.1734 33.967 50.4583 33.9844 51.029C33.9982 51.4787 34.0192 51.6125 34.076 51.7618C34.1172 51.8717 34.152 51.9212 34.1676 52.0366C34.196 52.2454 34.1145 52.3132 34.076 52.5862C34.0659 52.6567 34.0742 52.6347 34.076 53.1358C34.0769 53.2888 34.076 53.4408 34.076 53.5938C34.076 53.777 34.076 53.9602 34.076 54.1434C34.076 54.3568 34.0769 54.5712 34.076 54.7846C34.0742 55.2866 34.0678 55.2655 34.076 55.3342C34.1172 55.6869 34.2143 55.7592 34.1676 55.9754C34.1429 56.0908 34.0898 56.1742 33.9844 56.3418C33.8433 56.5662 33.7481 56.6258 33.7096 56.7998C33.6867 56.9042 33.7014 56.9684 33.7096 57.0746C33.7288 57.3311 33.6739 57.3879 33.618 57.8074C33.5493 58.325 33.5145 58.5833 33.618 58.815C33.6391 58.8608 33.6849 58.9524 33.7096 59.0898C33.7389 59.251 33.7197 59.3738 33.7096 59.4562C33.684 59.6715 33.7133 59.6715 33.7096 60.0974C33.705 60.6104 33.7023 60.9154 33.618 61.2882C33.5493 61.5905 33.5072 61.5823 33.4348 61.9294C33.3689 62.2436 33.3533 62.49 33.3432 62.6622C33.3038 63.3291 33.4156 63.2897 33.3432 63.6698C33.3194 63.7926 33.2791 63.9483 33.3432 64.1278C33.3808 64.2332 33.4311 64.2826 33.5264 64.4026C33.5566 64.4411 33.5255 64.4026 33.8928 64.9522C34.2152 65.434 34.2024 65.4075 34.2592 65.5018C34.469 65.8472 34.4305 65.8481 34.534 65.9598C34.6522 66.0872 34.7731 66.1623 34.8088 66.3262C34.8253 66.4041 34.8152 66.4636 34.8088 66.5094C34.7374 67.0196 34.9719 67.2917 34.8088 67.7002C34.7887 67.7515 34.7648 67.7955 34.7172 67.8834C34.5844 68.1298 34.5111 68.1894 34.4424 68.3414C34.392 68.4514 34.3728 68.5475 34.3508 68.7078C34.2803 69.2199 34.2894 69.6193 34.2592 70.0818C34.24 70.3713 34.2134 70.571 34.1676 70.9062C34.098 71.4192 34.0449 71.6345 33.9844 71.8222C33.9395 71.9606 33.9258 71.9771 33.8928 72.097C33.7985 72.4387 33.8012 72.7126 33.8012 72.8298C33.8012 73.5031 33.7124 73.5544 33.7096 74.5703C33.7078 75.304 33.7527 75.5916 33.7096 76.1275C33.6775 76.5305 33.6427 76.4792 33.618 76.8603C33.6079 77.0132 33.6052 77.1534 33.5264 77.3183C33.4614 77.4538 33.3634 77.5692 33.3432 77.5931C33.2571 77.6929 33.225 77.7012 33.16 77.7763C33.0913 77.856 33.0538 77.9329 32.9768 78.1427C32.8797 78.4065 32.8083 78.6428 32.7936 78.6923C32.7148 78.9533 32.6974 79.0385 32.6104 79.1503C32.549 79.229 32.5408 79.2089 32.4272 79.3335C32.3539 79.4141 32.2468 79.5313 32.1524 79.6999C32.0636 79.8574 32.0581 79.9316 31.9692 79.9747C31.9142 80.0012 31.83 80.015 31.786 79.9747C31.7356 79.9289 31.7778 79.8473 31.786 79.6999C31.7988 79.4663 31.7026 79.4525 31.6944 79.1503C31.6917 79.0687 31.6981 79.0385 31.6944 78.8755C31.6917 78.75 31.6871 78.7326 31.6944 78.6923C31.7127 78.5888 31.775 78.5219 31.8776 78.4175C32.1524 78.139 32.1671 78.1518 32.244 78.0511C32.3008 77.9769 32.3896 77.8569 32.4272 77.6847C32.4428 77.6141 32.4318 77.6169 32.4272 77.3183C32.4245 77.1323 32.429 77.1525 32.4272 76.7687C32.4263 76.6129 32.4254 76.6129 32.4272 76.5855C32.4391 76.3592 32.4968 76.1998 32.5188 76.1275C32.571 75.9562 32.5316 75.9186 32.5188 75.3947C32.5051 74.8066 32.5536 74.8258 32.5188 74.4787C32.4877 74.169 32.4492 74.1553 32.4272 73.8375C32.418 73.7065 32.4245 73.7101 32.4272 73.1963C32.43 72.4946 32.4171 72.5908 32.4272 72.4634C32.4437 72.2436 32.4675 72.1566 32.4272 72.0054C32.3906 71.8653 32.3237 71.7618 32.244 71.639C32.1213 71.4485 32.0819 71.4513 31.9692 71.2726C31.8987 71.16 31.8602 71.0739 31.786 70.9062C31.6688 70.6424 31.6898 70.6305 31.6028 70.4482C31.502 70.2366 31.3912 70.0791 31.328 69.9902C31.2108 69.8244 31.1769 69.807 31.0532 69.6238C30.8874 69.3765 30.8737 69.2968 30.87 69.2574C30.8654 69.2116 30.8673 69.1539 30.9616 68.891C31.0193 68.7317 31.0642 68.6254 31.1448 68.433C31.3014 68.0584 31.3152 68.019 31.328 67.975C31.393 67.7607 31.4132 67.5867 31.4196 67.517C31.4453 67.2569 31.4013 67.2358 31.4196 66.9674C31.4242 66.8932 31.4535 66.7339 31.5112 66.4178C31.5854 66.013 31.5946 65.9836 31.6028 65.8682C31.611 65.7455 31.601 65.7656 31.6028 65.4102C31.6046 65.0951 31.6129 65.0695 31.6028 64.9522C31.5845 64.7333 31.535 64.5693 31.5112 64.4942C31.4004 64.1379 31.2969 64.1379 31.1448 63.7614C31.0669 63.5681 31.0294 63.4078 30.9616 63.1202C30.9387 63.0213 30.8956 62.8399 30.87 62.6622C30.8224 62.3352 30.848 62.1328 30.87 61.7462C30.9131 60.9722 30.935 60.5847 30.87 60.2806C30.848 60.1762 30.7931 59.9536 30.7784 59.6394C30.7692 59.4397 30.7857 59.4068 30.7784 59.273C30.7619 58.9836 30.6694 58.8663 30.5036 58.4486C30.3671 58.1024 30.27 57.8578 30.2288 57.5326C30.2077 57.3696 30.2151 57.2074 30.2288 56.8914C30.2599 56.1833 30.3204 56.1229 30.3204 55.7006C30.3204 55.2527 30.2535 55.3278 30.2288 54.693C30.2215 54.5034 30.227 54.4924 30.2288 53.6854C30.2306 52.9608 30.2251 53.0607 30.2288 52.9526C30.2517 52.2354 30.3296 52.1273 30.2288 51.8534C30.1143 51.5401 29.8807 51.3203 29.8624 51.3038C29.7021 51.1554 29.6078 51.1435 29.4044 50.9374C29.2963 50.8284 29.202 50.7304 29.1296 50.571C29.0453 50.3841 29.0398 50.2183 29.038 50.113C29.0371 50.0562 29.038 49.9435 29.1296 49.5634C29.2001 49.2703 29.2359 49.1237 29.3128 48.9222C29.3971 48.7023 29.4566 48.5475 29.5876 48.3726C29.6407 48.3011 29.7461 48.2022 29.954 48.0062C30.3296 47.6526 30.3561 47.6517 30.412 47.5482C30.5009 47.3824 30.4679 47.3201 30.5952 47.0902C30.6483 46.994 30.6529 47.0077 30.7784 46.8154C30.8031 46.7778 30.9185 46.6001 31.0532 46.3574C31.1521 46.1788 31.2016 46.089 31.2364 45.991C31.2675 45.9021 31.2666 45.8792 31.328 45.6246C31.4077 45.2939 31.4086 45.3369 31.4196 45.2582C31.4343 45.1574 31.4205 45.1785 31.4196 44.7086C31.4196 44.4787 31.4196 44.4338 31.4196 44.4338C31.4205 44.2689 31.4224 44.2689 31.4196 44.2506C31.3976 44.0765 31.2483 44.0197 31.1448 43.8842C30.9992 43.6936 31.023 43.45 31.0532 43.1514C31.0816 42.8711 31.1677 42.6686 31.2364 42.5102C31.3243 42.3086 31.4196 42.1575 31.6028 41.869C31.8117 41.5392 31.8428 41.5328 31.8776 41.411C31.9362 41.2085 31.8712 41.1609 31.8776 40.7698C31.8831 40.4473 31.8858 40.2861 31.9692 40.1286C32.0947 39.8931 32.2522 39.8977 32.3356 39.6706C32.3933 39.5121 32.3613 39.3893 32.3356 39.2126C32.3274 39.1539 32.3374 39.2135 32.3356 38.205C32.3338 37.1818 32.3237 37.2422 32.3356 37.1058C32.4025 36.3336 32.4272 36.1897 32.4272 36.1897C32.4593 36.0047 32.4968 35.8353 32.4272 35.6401C32.3585 35.446 32.222 35.3342 32.1524 35.2737C31.7164 34.8964 31.4379 34.4109 31.1448 33.8997C30.9873 33.6249 30.8627 33.4042 30.7784 33.0753C30.7216 32.8537 30.7097 32.6219 30.6868 32.1593C30.6676 31.7682 30.6694 31.454 30.6868 31.1517C30.7134 30.6974 30.7582 30.5664 30.7784 30.5105C30.8205 30.3969 30.8727 30.2989 30.9616 30.0525C31.0129 29.9106 31.0385 29.8391 31.0532 29.7777C31.0761 29.6806 31.1439 29.3839 31.0532 29.0449C30.9973 28.8352 30.9286 28.7912 30.9616 28.6785C30.9854 28.5952 31.0431 28.5494 31.2364 28.4037C31.5918 28.1353 31.579 28.1527 31.6028 28.1289C31.7457 27.9842 31.7613 27.7561 31.786 27.3045C31.8126 26.8273 31.8226 26.5845 31.6944 26.3885C31.6898 26.3812 31.6926 26.3867 31.328 26.0221C30.9827 25.6777 31.0276 25.7198 30.9616 25.6557C30.7179 25.4176 30.7134 25.4258 30.6868 25.3809C30.5833 25.206 30.6483 25.0731 30.6868 24.6481C30.6978 24.5235 30.7262 24.1663 30.6868 23.7321C30.6703 23.5489 30.6547 23.3895 30.5952 23.1825C30.5302 22.9572 30.4725 22.8866 30.412 22.7245C30.2993 22.4259 30.3607 22.3123 30.3204 21.8085C30.2938 21.4714 30.2682 21.1582 30.1372 20.8009C30.0016 20.4327 29.9174 20.4638 29.7708 20.0681C29.7076 19.8968 29.5894 19.5716 29.5876 19.1521C29.5858 18.771 29.6792 18.3277 29.6792 18.3277C29.6792 18.3277 29.7232 18.2627 29.7708 18.2361C29.8166 18.2105 29.8514 18.2279 29.954 18.2361C30.0291 18.2425 30.0813 18.2462 30.1372 18.2361C30.2929 18.2077 30.3882 18.084 30.412 18.0529C30.4697 17.9778 30.4935 17.9045 30.5036 17.8697C30.6795 17.2752 30.5952 16.1293 30.5952 16.1293C30.5879 16.0295 30.5769 15.903 30.5036 15.7629C30.4221 15.6081 30.3241 15.5531 30.1372 15.3965C29.9503 15.2399 29.8294 15.1089 29.5876 14.8469C29.3778 14.6197 29.2716 14.5043 29.2212 14.3889C29.1607 14.2515 29.1507 14.0839 29.1296 13.7477C29.103 13.3108 29.136 13.199 29.038 13.0149C28.9537 12.8555 28.8905 12.8665 28.8548 12.7401C28.7934 12.5193 28.951 12.3636 29.038 12.0989C29.1149 11.8662 29.0691 11.7581 29.038 11.2745C29.0069 10.7872 29.0233 10.4171 29.038 10.0837C29.0765 9.19882 29.202 8.97257 29.038 8.70968C28.9995 8.64739 28.885 8.48801 28.8548 8.25168C28.8383 8.1216 28.8612 8.08038 28.8548 7.97688C28.8429 7.77352 28.7357 7.63338 28.4884 7.33567C28.198 6.98576 28.0524 6.81081 27.9388 6.69447C27.6814 6.42975 27.5009 6.2438 27.206 6.05327C27.0631 5.96075 26.8973 5.8545 26.6564 5.77847C26.3853 5.69237 26.1828 5.69511 26.0152 5.68687C25.505 5.66031 25.33 5.52749 24.8244 5.41207C24.4965 5.33787 24.087 5.33146 23.2672 5.32047C21.6156 5.29757 21.9683 5.46611 21.1604 5.41207C20.9891 5.40108 20.5741 5.36627 20.2444 5.59527C20.085 5.70611 19.9815 5.85358 19.9696 5.87007C19.8441 6.05144 19.8074 6.22182 19.7864 6.32807C19.7323 6.59738 19.7726 6.81172 19.7864 6.87767C19.8221 7.04439 19.8807 7.16072 19.9696 7.33567C20.0566 7.50788 20.1308 7.61048 20.1528 7.79368C20.1574 7.83398 20.1647 7.89718 20.1528 7.97688C20.1308 8.1216 20.0621 8.21778 19.9696 8.34328C19.6517 8.7738 19.6252 8.80586 19.6032 8.89288C19.5739 9.01104 19.5849 9.10722 19.6032 9.25928C19.6297 9.48278 19.6939 9.60003 19.6948 9.80888C19.6948 9.85376 19.692 9.89773 19.6948 9.99208C19.6984 10.1359 19.7076 10.1432 19.6948 10.1753C19.6508 10.2861 19.5061 10.2999 19.5116 10.3585C19.5152 10.3942 19.5693 10.3915 19.6032 10.4501C19.6453 10.5234 19.6105 10.615 19.6032 10.6333C19.5629 10.7386 19.4667 10.7908 19.42 10.8165C19.2276 10.9237 19.0591 11.0702 18.8704 11.1829C18.4289 11.4458 18.4866 11.4201 18.4124 11.4577C18.0973 11.6162 18.0249 11.5923 17.8628 11.7325C17.7886 11.7966 17.6713 11.9166 17.588 12.0073C17.4716 12.1337 17.4625 12.1566 17.4048 12.1905C17.2564 12.2766 17.1785 12.2015 17.0384 12.2821C16.9431 12.337 16.8478 12.4479 16.8552 12.5569C16.8607 12.6375 16.9184 12.6549 16.9468 12.7401C16.9971 12.8894 16.89 13.0479 16.8552 13.1065C16.7764 13.2384 16.7709 13.624 16.7636 14.3889C16.7636 14.4246 16.7636 14.3953 16.7636 15.4881C16.7636 15.9763 16.7636 16.2209 16.7636 16.2209C16.7553 16.2914 16.7288 16.5094 16.7636 16.7705C16.7755 16.8584 16.7938 16.951 16.8552 17.0453C16.9001 17.1149 16.9486 17.1552 17.0384 17.2285C17.1739 17.3403 17.2417 17.3961 17.3132 17.4117C17.4726 17.4474 17.5587 17.343 17.6796 17.4117C17.7043 17.4254 17.7263 17.452 17.7712 17.5033C17.8298 17.572 17.9141 17.6682 17.9544 17.7781C17.9654 17.8065 18.0029 17.9164 17.9544 18.1445C17.9287 18.2672 17.8408 18.684 17.4964 18.9689C17.3864 19.0596 17.2894 19.1054 17.2216 19.2437C17.1721 19.3445 17.1923 19.3848 17.13 19.5185C17.0878 19.6092 17.0567 19.6376 16.9468 19.7933C16.8433 19.9399 16.792 20.0131 16.7636 20.0681C16.682 20.2275 16.7205 20.2916 16.672 20.7093C16.6436 20.9493 16.6289 21.0711 16.5804 21.1673C16.4897 21.3487 16.3981 21.3551 16.3056 21.5337C16.2854 21.574 16.2396 21.6702 16.214 21.9917C16.1975 22.1987 16.2112 22.218 16.214 22.7245C16.2158 23.1459 16.2167 23.3556 16.214 23.3657C16.203 23.4014 16.1709 23.493 16.214 23.5489C16.2506 23.5956 16.3111 23.581 16.3972 23.6405C16.4191 23.6561 16.443 23.6817 16.4888 23.7321C16.6527 23.9126 16.6674 23.9813 16.672 24.0069C16.6738 24.0197 16.6729 24.0197 16.672 24.0985C16.6701 24.2487 16.672 24.3504 16.672 24.3733C16.672 24.6738 16.3056 27.2276 16.5804 27.3045C16.6078 27.3119 16.6262 27.2908 16.672 27.3045C16.803 27.3439 16.8414 27.5784 16.8552 27.6709C16.9459 28.2608 17.0961 29.7191 17.0384 30.1441C17.0365 30.156 17.032 30.1908 17.0384 30.2357C17.0567 30.3603 17.1474 30.4235 17.2216 30.5105C17.3663 30.68 17.2765 30.7359 17.4048 30.8769C17.5348 31.0207 17.6484 30.9869 17.7712 31.1517C17.8234 31.2223 17.8444 31.2846 17.8628 31.3349C18.0057 31.7279 18.2466 32.0925 18.4124 32.3425C18.5067 32.4854 18.5745 32.5862 18.6872 32.7089C18.7632 32.7914 18.8667 32.8921 18.962 32.9837C19.0811 33.0982 19.0985 33.1111 19.1452 33.1669C19.234 33.2741 19.2917 33.3758 19.3284 33.4417C19.3833 33.5398 19.4108 33.5892 19.42 33.6249C19.4676 33.8081 19.3559 33.9886 19.2368 34.1745C19.0591 34.4521 19.0078 34.3999 18.962 34.5409C18.8795 34.7965 19.0636 34.9266 18.962 35.1821C18.9208 35.2857 18.8969 35.2499 18.7788 35.4569C18.6936 35.6063 18.6927 35.6502 18.5956 35.8233C18.5159 35.9662 18.4765 36.0377 18.4124 36.0981C18.2997 36.2053 18.2255 36.1925 18.046 36.2813C17.9681 36.3198 17.7446 36.4334 17.588 36.6477C17.4698 36.809 17.4359 36.9647 17.4048 37.1058C17.3397 37.4035 17.3755 37.6416 17.4048 37.8386C17.4405 38.0758 17.4689 38.2645 17.588 38.4798C17.6906 38.6657 17.7757 38.7161 17.8628 38.9378C17.9214 39.0871 17.9406 39.2107 17.9544 39.3042C17.9818 39.4901 17.9782 39.6385 17.9544 39.9454C17.9159 40.4336 17.8976 40.6772 17.8628 40.7698C17.7574 41.051 17.6319 41.1151 17.588 41.411C17.566 41.5612 17.5779 41.6821 17.588 41.7774C17.6008 41.9065 17.6365 42.1117 17.7712 42.4186C17.871 42.6457 17.9131 42.6723 18.1376 43.0598C18.3611 43.4454 18.4728 43.6387 18.504 43.7926C18.5186 43.8658 18.5873 44.2377 18.4124 44.617C18.2512 44.9669 18.057 44.9449 17.8628 45.3498C17.7153 45.6566 17.8197 45.6859 17.6796 45.8994C17.4716 46.2163 17.2023 46.2117 17.0384 46.5406C16.9752 46.6679 17.0026 46.6926 16.9468 46.907C16.7874 47.5134 16.4787 47.6361 16.3056 48.1894C16.2524 48.3588 16.2396 48.5164 16.214 48.8306C16.1508 49.6046 16.3037 49.7951 16.1224 50.113C16.0711 50.2028 15.9676 50.3475 15.9392 50.571C15.9309 50.6379 15.9373 50.6443 15.9392 50.8458C15.9428 51.2232 15.9208 51.2626 15.9392 51.3954C15.9703 51.6134 16.0509 51.6482 16.1224 51.8534C16.301 52.3636 15.9529 52.5834 16.1224 53.1358C16.1462 53.2118 16.1993 53.3392 16.3056 53.5938C16.4082 53.8384 16.4448 53.9089 16.4888 54.0518C16.5675 54.3074 16.5208 54.3174 16.5804 54.5098C16.7169 54.9522 17.021 55.1034 16.9468 55.3342C16.9239 55.4057 16.8881 55.4102 16.8552 55.5174C16.8039 55.685 16.8433 55.8316 16.8552 55.8838C16.9303 56.2108 16.7755 56.4499 16.7636 56.8914C16.7544 57.2377 16.8451 57.2697 16.9468 57.8074C17.0805 58.5155 17.217 59.2419 16.8552 59.731C16.7553 59.8666 16.6408 59.9509 16.3972 60.2806C16.1956 60.5527 16.1379 60.68 16.1224 60.8302C16.115 60.8989 16.0949 61.1069 16.214 61.2882C16.3504 61.4952 16.5556 61.4934 16.5804 61.6546C16.5941 61.7462 16.53 61.76 16.4888 61.9294C16.4375 62.141 16.5227 62.1822 16.4888 62.3874C16.453 62.6073 16.3486 62.6036 16.3056 62.8454C16.2909 62.9306 16.3001 62.9498 16.3056 63.2118C16.3129 63.5581 16.2964 63.5572 16.3056 63.6698C16.3285 63.9492 16.4356 64.0335 16.5804 64.4026C16.6912 64.6848 16.737 64.9119 16.7636 65.0438C16.8488 65.4643 16.9266 65.8517 16.7636 66.2346C16.6967 66.3922 16.6491 66.4068 16.5804 66.601C16.4952 66.8419 16.4979 67.0215 16.4888 67.2422C16.4576 68.019 16.3395 68.019 16.3972 68.433C16.4237 68.6227 16.453 68.8342 16.5804 69.0742C16.6491 69.2034 16.803 69.4489 16.9468 69.7154C16.9697 69.7585 17.021 69.8556 17.0384 69.9902C17.0494 70.08 17.0411 70.1496 17.0384 70.1734C16.9935 70.5554 17.0164 71.4531 16.9468 71.4558C16.9257 71.4568 16.9312 71.3725 16.8552 71.2726C16.7755 71.1682 16.6839 71.1462 16.5804 71.0894C16.5804 71.0894 16.3486 70.963 16.214 70.723C16.1233 70.5618 16.181 70.5069 16.1224 70.1734C16.0674 69.8565 16.0097 69.8748 15.9392 69.5322C15.8531 69.1145 15.9428 69.1081 15.8476 68.891C15.7468 68.662 15.6149 68.5933 15.5728 68.3414C15.5544 68.2288 15.5645 68.1463 15.5728 68.0666C15.6286 67.5234 15.5297 67.4914 15.5728 66.8758C15.603 66.4362 15.6616 66.3345 15.5728 66.143C15.4821 65.9479 15.3841 65.9708 15.298 65.7766C15.2091 65.576 15.276 65.4643 15.298 64.9522C15.309 64.6976 15.3016 64.5061 15.298 64.4026C15.2824 64.0106 15.2751 63.8155 15.2064 63.5782C15.1322 63.3236 15.0131 63.0937 14.9316 62.937C14.8345 62.7502 14.7969 62.7099 14.7484 62.5706C14.6797 62.3764 14.6687 62.2189 14.6568 62.021C14.6366 61.7023 14.676 61.6839 14.6568 61.3798C14.643 61.1591 14.6339 61.0134 14.5652 60.8302C14.5313 60.7386 14.4598 60.549 14.2904 60.3722C14.1163 60.1908 13.9808 60.1734 13.924 60.0058C13.8882 59.9023 13.9093 59.8153 13.924 59.731C13.9633 59.5075 13.9505 59.2767 13.924 58.815C13.8946 58.2966 13.8058 58.1601 13.924 57.9906C13.9661 57.9302 14.0375 57.8615 14.1072 57.7158C14.1154 57.6984 14.174 57.5747 14.1988 57.441C14.2217 57.3155 14.2162 57.1809 14.0156 56.6166C13.924 56.3592 13.8772 56.2291 13.8324 56.1586C13.6565 55.8847 13.5118 55.903 13.3744 55.7006C13.2901 55.576 13.2864 55.3104 13.2828 54.7846C13.2782 54.1113 13.3304 53.9648 13.3744 53.8686C13.4495 53.7037 13.5063 53.6781 13.5576 53.5022C13.6418 53.2118 13.5814 52.9581 13.5576 52.861C13.5026 52.643 13.4092 52.5001 13.2828 52.3114C13.171 52.1447 13.1261 52.1135 12.8248 51.7618C12.4474 51.3212 12.3988 51.2314 12.3668 51.1206C12.309 50.9191 12.3356 50.7505 12.3668 50.571C12.4281 50.211 12.5536 50.0223 12.7332 49.655C13.0483 49.0083 12.9301 49.0394 13.1912 48.5558C13.4275 48.117 13.5273 48.0877 13.7408 47.6398C13.8461 47.419 13.9478 47.2065 14.0156 46.907C14.0403 46.798 14.1493 46.2868 14.0156 45.6246C13.9404 45.2545 13.8809 45.2866 13.7408 44.7086C13.5942 44.1058 13.6208 43.9107 13.6492 43.7926C13.727 43.4683 13.8745 43.4875 14.0156 43.1514C14.2876 42.5038 14.0055 41.7984 13.924 41.5942C13.8314 41.3624 13.7307 41.2122 13.5576 40.953C13.2342 40.4693 13.073 40.2284 12.8248 40.1286C12.7258 40.0892 12.5683 40.047 12.55 39.9454C12.538 39.8748 12.5985 39.8135 12.6416 39.7622C12.6416 39.7622 12.6901 39.7054 12.9164 39.2126C13.095 38.8242 12.9924 38.3121 12.9164 37.9302C12.8229 37.4612 12.702 37.3164 12.7332 36.9226C12.7423 36.8026 12.7533 36.8163 12.8248 36.4645C12.9237 35.9763 12.9219 35.8517 13.008 35.3653C13.1353 34.6481 13.1673 34.7535 13.1912 34.4493C13.2159 34.1278 13.2443 33.7633 13.0996 33.3501C13.0006 33.0653 12.888 32.9553 12.8248 32.6173Z"/>
</mask>
<path d="M12.8248 32.6173C12.8092 32.5349 12.7927 32.414 12.7332 32.2509C12.7139 32.1978 12.6599 32.0586 12.55 31.8845C12.4071 31.6583 12.3191 31.6116 12.092 31.3349C11.9445 31.1554 11.8703 31.0665 11.8172 30.9685C11.6486 30.6608 11.7054 30.4592 11.634 30.0525C11.5625 29.6449 11.4828 29.7237 11.3592 29.2281C11.3381 29.1439 11.3335 29.1127 11.176 28.0373C11.1366 27.768 11.1109 27.5949 10.9928 27.3961C10.8892 27.223 10.8215 27.2083 10.7179 27.0297C10.6016 26.8282 10.6089 26.71 10.5347 26.3885C10.4486 26.0185 10.3992 25.8032 10.2599 25.5641C10.1244 25.3315 9.85324 24.988 9.80195 24.9229C9.74974 24.857 9.65356 24.737 9.61875 24.5565C9.60134 24.4658 9.60409 24.3816 9.61875 24.2817C9.67371 23.9199 9.82027 23.853 9.89355 23.5489C9.96225 23.265 9.91187 22.9938 9.89355 22.9077C9.85416 22.7245 9.78821 22.5935 9.80195 22.3581C9.81202 22.1877 9.85324 22.1218 9.89355 22.0833C9.96774 22.0128 10.0713 22.0018 10.1683 21.9917C10.3131 21.9771 10.347 22.0109 10.4431 21.9917C10.521 21.9761 10.6025 21.934 10.7179 21.8085C10.8627 21.651 10.9241 21.5117 11.0844 21.1673C11.3335 20.6324 11.372 20.5664 11.3592 20.4345C11.3546 20.385 11.3381 20.2898 11.3592 20.1597C11.3729 20.0727 11.3995 20.0012 11.4508 19.8849C11.5176 19.7338 11.5515 19.6587 11.634 19.5185C11.8181 19.2061 11.6056 18.63 11.5424 17.6865C11.514 17.2596 11.5304 16.9766 11.4508 16.4957C11.4315 16.3812 11.4077 16.2337 11.3592 16.0377C11.2749 15.6942 11.2309 15.664 11.176 15.3965C11.099 15.0191 11.1714 15.0026 11.0844 14.8469C10.9799 14.6591 10.8572 14.6518 10.7179 14.3889C10.6712 14.3019 10.6318 14.224 10.6263 14.1141C10.6199 13.9794 10.6694 13.8622 10.7179 13.7477C10.772 13.6195 10.7867 13.635 10.8096 13.5645C10.881 13.3492 10.7729 13.1285 10.7179 13.0149C10.6392 12.8537 10.5457 12.7557 10.4431 12.6485C10.2609 12.458 10.0822 12.3407 9.98515 12.2821C9.71768 12.1218 9.44929 12.0393 9.34395 12.0073C9.13052 11.9432 9.1067 11.9597 9.06915 11.9157C8.92259 11.7407 9.25601 11.4247 9.34395 10.8165C9.36501 10.6736 9.41356 10.3017 9.25235 9.90048C9.16166 9.67514 9.04258 9.535 8.88595 9.35088C8.64595 9.06875 8.54336 9.03944 8.06154 8.61808C7.63927 8.24893 7.61545 8.18206 7.32874 7.97688C7.09608 7.81016 6.92387 7.68742 6.68754 7.61048C6.29732 7.48315 6.10405 7.60315 5.67994 7.61048C4.63936 7.6288 4.40944 6.93447 3.57313 7.06087C3.41375 7.08469 3.15818 7.14973 2.84033 7.06087C2.61866 6.99859 2.60675 6.92805 2.38233 6.87767C2.10661 6.81539 2.02142 6.89783 1.64953 6.87767C1.45259 6.8676 1.31427 6.83554 1.09992 6.78607C0.669404 6.68714 0.570475 6.59921 0.275523 6.60287C0.117054 6.6047 0.010798 6.63218 0.000722011 6.60287C-0.016682 6.55158 0.284683 6.4041 0.458723 6.32807C0.912144 6.1293 1.29778 6.06518 1.37473 6.05327C2.22111 5.91862 2.37866 6.07617 3.29833 5.96167C3.72152 5.90854 3.93312 5.88289 4.21433 5.77847C4.44333 5.69328 4.65218 5.58336 5.13034 5.41207C5.27232 5.36169 5.34285 5.33604 5.40514 5.32047C5.79627 5.22246 6.10954 5.28749 6.32114 5.32047C6.68113 5.37635 7.04936 5.35711 7.78674 5.32047C8.22642 5.29849 8.56076 5.25818 8.79434 5.22887C9.29082 5.1675 9.54455 5.13635 9.89355 5.04567C10.1638 4.97605 10.5027 4.88537 10.9012 4.67927C11.2034 4.52263 11.1302 4.51164 11.634 4.22127C11.8831 4.07745 12.1204 3.91166 12.3668 3.76327C12.5417 3.65793 12.7038 3.56266 12.7332 3.39686C12.7561 3.26679 12.6837 3.17061 12.7332 3.12206C12.7964 3.06069 12.9759 3.15504 13.0996 3.21366C13.3881 3.34923 13.7105 3.39503 14.0156 3.48846C14.5569 3.65426 14.5606 3.64235 14.9316 3.76327C15.3685 3.90616 15.3254 3.90983 15.4812 3.94647C15.8979 4.04448 16.0482 3.97761 16.4888 4.03807C16.7452 4.07379 16.9165 4.12692 17.2216 4.22127C17.8408 4.41363 17.8802 4.51988 18.4124 4.67927C18.6661 4.7553 18.9885 4.84873 19.42 4.86247C19.7864 4.87346 20.0667 4.82216 20.336 4.77087C20.8297 4.67744 20.8132 4.61332 21.3436 4.49607C21.9216 4.36874 22.2101 4.30462 22.5344 4.31287C22.8128 4.32019 23.0244 4.36325 23.1756 4.22127C23.2571 4.14432 23.2644 4.06738 23.4504 3.85487C23.542 3.75044 23.6052 3.69548 23.6336 3.67167C23.7151 3.60388 23.793 3.55258 23.9084 3.48846C24.2665 3.28969 24.2986 3.3419 24.458 3.21366C24.458 3.21366 24.5642 3.12756 24.7328 2.93886C24.7328 2.93886 24.7942 2.93886 24.916 2.93886C25.1294 2.93886 25.3438 2.93886 25.5572 2.93886C25.7706 2.93886 25.985 2.94986 26.1984 2.93886C26.5996 2.91871 26.7104 2.87016 26.9312 2.93886C27.0439 2.97367 27.075 3.00482 27.206 3.03046C27.3736 3.06344 27.4799 3.04329 27.664 3.03046C27.8472 3.01856 28.0304 3.03046 28.2136 3.03046C28.427 3.03046 28.6414 3.02772 28.8548 3.03046C29.2047 3.03596 29.2496 3.04604 29.4044 3.03046C29.6004 3.01031 29.7442 2.97184 29.8624 2.93886C30.1656 2.85551 30.2022 2.80238 30.5952 2.66406C30.9735 2.53124 30.9634 2.57155 31.1448 2.48086C31.2758 2.41583 31.415 2.31507 31.6944 2.11446C31.8813 1.97981 31.9738 1.91294 32.0608 1.83966C32.2724 1.66012 32.2779 1.61249 32.5188 1.38166C32.7652 1.14533 32.8889 1.02717 33.0684 0.923658C33.3148 0.781678 33.4165 0.798166 33.5264 0.648857C33.5795 0.577409 33.6226 0.479397 33.7096 0.282456C33.7774 0.129484 33.8067 0.0406316 33.8928 0.0076555C33.9313 -0.00700053 33.945 0.00307549 34.076 0.0076555C34.2748 0.0149835 34.2931 -0.00700053 34.3508 0.0076555C34.48 0.0397156 34.5166 0.18078 34.6256 0.374056C34.6256 0.374056 34.8106 0.701069 35.0836 0.923658C35.254 1.06289 35.4106 1.11877 35.6332 1.19846C35.876 1.28548 36.0729 1.31845 36.4576 1.38166C36.8533 1.4467 36.8561 1.42471 37.0072 1.47326C37.1217 1.5099 37.391 1.60974 37.6484 1.83966C37.7977 1.9734 37.8509 2.06774 38.0148 2.29766C38.4142 2.85734 38.6139 3.13764 38.8392 3.30526C39.1159 3.51045 39.3458 3.56724 39.4804 3.85487C39.5253 3.95105 39.5107 3.96753 39.572 4.12967C39.6077 4.22401 39.7259 4.53637 39.9384 4.77087C40.2618 5.12811 40.5384 5.01452 40.6712 5.32047C40.6767 5.33421 40.7912 5.60718 40.6712 5.77847C40.6502 5.80778 40.6263 5.82885 40.5796 5.87007C40.4532 5.98091 40.3351 6.0377 40.3048 6.05327C40.1839 6.11464 40.0712 6.21632 39.8468 6.41967C39.5913 6.65142 39.4493 6.85844 39.2972 7.06087C38.9043 7.58483 38.8942 7.48681 38.198 8.34328C38.0542 8.52098 37.838 8.7912 37.6484 9.16768C37.5761 9.31241 37.5119 9.43973 37.4652 9.62568C37.4038 9.86751 37.4414 9.92979 37.3736 10.1753C37.3434 10.2834 37.3297 10.2962 37.1904 10.6333C37.0924 10.8705 37.0439 10.9896 37.0072 11.0913C36.955 11.2378 36.8433 11.5493 36.824 11.9157C36.8149 12.0952 36.8478 12.3105 36.9156 12.7401C36.9816 13.1633 37.0191 13.2457 37.0072 13.4729C36.9953 13.7056 36.9495 13.7449 36.9156 14.0225C36.8991 14.1562 36.8945 14.2698 36.9156 14.7553C36.9422 15.3571 36.9559 15.664 37.0072 15.9461C37.0649 16.2639 37.0933 16.4224 37.1904 16.5873C37.3132 16.7961 37.4213 16.841 37.4652 17.0453C37.4808 17.1186 37.4689 17.1213 37.4652 17.5033C37.4652 17.5033 37.4652 17.6251 37.4652 17.8697C37.4652 18.3277 37.4652 18.3277 37.4652 18.3277C37.4561 19.0358 37.228 19.1952 37.3736 19.5185C37.4249 19.6321 37.4872 19.688 37.5568 19.8849C37.5816 19.9545 37.5999 20.0196 37.6484 20.2513C37.6768 20.386 37.718 20.5792 37.74 20.7093C37.7702 20.8879 37.7959 21.1206 37.8316 22.2665C37.8408 22.567 37.8435 22.6805 37.9232 22.8161C38.0029 22.9517 38.1202 23.0405 38.1064 23.1825C38.0991 23.2576 38.0625 23.2805 38.0148 23.3657C37.9086 23.5562 37.958 23.6863 37.9232 24.0069C37.8921 24.2964 37.8472 24.2414 37.8316 24.4649C37.8041 24.8634 37.9489 25.0218 37.8316 25.1977C37.7648 25.2976 37.7135 25.2536 37.5568 25.3809C37.2738 25.6118 37.2051 25.9488 37.1904 26.0221C37.1483 26.2328 37.1776 26.3995 37.1904 26.4801C37.2316 26.7485 37.1877 27.1167 37.0988 27.8541C36.9788 28.8507 36.8158 28.8892 36.6408 30.0525C36.5181 30.8687 36.541 31.2296 36.5492 31.3349C36.5877 31.8506 36.7123 32.2537 36.824 32.6173C37.0127 33.2301 37.0768 33.1715 37.282 33.8081C37.282 33.8081 37.4322 34.2735 37.6484 34.6325C37.6988 34.7159 37.7217 34.7498 37.7217 34.7498C37.7858 34.8414 37.8124 34.8579 37.8316 34.9073C37.8618 34.987 37.8389 35.0631 37.8316 35.0905C37.7849 35.2737 37.8673 35.6401 37.9232 36.0065C37.9919 36.4545 38.0002 36.7622 38.0148 37.289C38.0249 37.6608 38.0139 37.8312 37.9232 38.0218C37.8655 38.1427 37.762 38.2572 37.5568 38.4798C37.3461 38.7097 37.2133 38.8544 37.0072 39.0294C36.6362 39.3454 36.519 39.3435 36.366 39.579C36.344 39.6128 36.2341 39.786 36.1828 40.037C36.1443 40.2257 36.1572 40.407 36.1828 40.7698C36.203 41.0491 36.2213 41.1105 36.1828 41.2278C36.126 41.4027 36.0143 41.4852 35.908 41.5942C35.7889 41.7169 35.7651 41.781 35.45 42.4186C35.3612 42.5981 35.1651 42.9947 34.992 43.3346C34.731 43.8466 34.5963 44.1077 34.4424 44.3422C34.1804 44.7406 34.1392 44.7049 34.076 44.8918C33.9716 45.1995 34.0595 45.3635 33.9844 45.8994C33.9496 46.1458 33.9322 46.1009 33.8928 46.3574C33.814 46.8676 33.8488 47.2551 33.8928 47.7314C33.9175 48.0044 33.9313 48.1445 33.9844 48.281C34.054 48.4605 34.131 48.542 34.1676 48.739C34.1942 48.8819 34.1823 48.9955 34.1676 49.1054C34.109 49.5542 34.0311 49.7438 33.9844 50.0214C33.9588 50.1734 33.967 50.4583 33.9844 51.029C33.9982 51.4787 34.0192 51.6125 34.076 51.7618C34.1172 51.8717 34.152 51.9212 34.1676 52.0366C34.196 52.2454 34.1145 52.3132 34.076 52.5862C34.0659 52.6567 34.0742 52.6347 34.076 53.1358C34.0769 53.2888 34.076 53.4408 34.076 53.5938C34.076 53.777 34.076 53.9602 34.076 54.1434C34.076 54.3568 34.0769 54.5712 34.076 54.7846C34.0742 55.2866 34.0678 55.2655 34.076 55.3342C34.1172 55.6869 34.2143 55.7592 34.1676 55.9754C34.1429 56.0908 34.0898 56.1742 33.9844 56.3418C33.8433 56.5662 33.7481 56.6258 33.7096 56.7998C33.6867 56.9042 33.7014 56.9684 33.7096 57.0746C33.7288 57.3311 33.6739 57.3879 33.618 57.8074C33.5493 58.325 33.5145 58.5833 33.618 58.815C33.6391 58.8608 33.6849 58.9524 33.7096 59.0898C33.7389 59.251 33.7197 59.3738 33.7096 59.4562C33.684 59.6715 33.7133 59.6715 33.7096 60.0974C33.705 60.6104 33.7023 60.9154 33.618 61.2882C33.5493 61.5905 33.5072 61.5823 33.4348 61.9294C33.3689 62.2436 33.3533 62.49 33.3432 62.6622C33.3038 63.3291 33.4156 63.2897 33.3432 63.6698C33.3194 63.7926 33.2791 63.9483 33.3432 64.1278C33.3808 64.2332 33.4311 64.2826 33.5264 64.4026C33.5566 64.4411 33.5255 64.4026 33.8928 64.9522C34.2152 65.434 34.2024 65.4075 34.2592 65.5018C34.469 65.8472 34.4305 65.8481 34.534 65.9598C34.6522 66.0872 34.7731 66.1623 34.8088 66.3262C34.8253 66.4041 34.8152 66.4636 34.8088 66.5094C34.7374 67.0196 34.9719 67.2917 34.8088 67.7002C34.7887 67.7515 34.7648 67.7955 34.7172 67.8834C34.5844 68.1298 34.5111 68.1894 34.4424 68.3414C34.392 68.4514 34.3728 68.5475 34.3508 68.7078C34.2803 69.2199 34.2894 69.6193 34.2592 70.0818C34.24 70.3713 34.2134 70.571 34.1676 70.9062C34.098 71.4192 34.0449 71.6345 33.9844 71.8222C33.9395 71.9606 33.9258 71.9771 33.8928 72.097C33.7985 72.4387 33.8012 72.7126 33.8012 72.8298C33.8012 73.5031 33.7124 73.5544 33.7096 74.5703C33.7078 75.304 33.7527 75.5916 33.7096 76.1275C33.6775 76.5305 33.6427 76.4792 33.618 76.8603C33.6079 77.0132 33.6052 77.1534 33.5264 77.3183C33.4614 77.4538 33.3634 77.5692 33.3432 77.5931C33.2571 77.6929 33.225 77.7012 33.16 77.7763C33.0913 77.856 33.0538 77.9329 32.9768 78.1427C32.8797 78.4065 32.8083 78.6428 32.7936 78.6923C32.7148 78.9533 32.6974 79.0385 32.6104 79.1503C32.549 79.229 32.5408 79.2089 32.4272 79.3335C32.3539 79.4141 32.2468 79.5313 32.1524 79.6999C32.0636 79.8574 32.0581 79.9316 31.9692 79.9747C31.9142 80.0012 31.83 80.015 31.786 79.9747C31.7356 79.9289 31.7778 79.8473 31.786 79.6999C31.7988 79.4663 31.7026 79.4525 31.6944 79.1503C31.6917 79.0687 31.6981 79.0385 31.6944 78.8755C31.6917 78.75 31.6871 78.7326 31.6944 78.6923C31.7127 78.5888 31.775 78.5219 31.8776 78.4175C32.1524 78.139 32.1671 78.1518 32.244 78.0511C32.3008 77.9769 32.3896 77.8569 32.4272 77.6847C32.4428 77.6141 32.4318 77.6169 32.4272 77.3183C32.4245 77.1323 32.429 77.1525 32.4272 76.7687C32.4263 76.6129 32.4254 76.6129 32.4272 76.5855C32.4391 76.3592 32.4968 76.1998 32.5188 76.1275C32.571 75.9562 32.5316 75.9186 32.5188 75.3947C32.5051 74.8066 32.5536 74.8258 32.5188 74.4787C32.4877 74.169 32.4492 74.1553 32.4272 73.8375C32.418 73.7065 32.4245 73.7101 32.4272 73.1963C32.43 72.4946 32.4171 72.5908 32.4272 72.4634C32.4437 72.2436 32.4675 72.1566 32.4272 72.0054C32.3906 71.8653 32.3237 71.7618 32.244 71.639C32.1213 71.4485 32.0819 71.4513 31.9692 71.2726C31.8987 71.16 31.8602 71.0739 31.786 70.9062C31.6688 70.6424 31.6898 70.6305 31.6028 70.4482C31.502 70.2366 31.3912 70.0791 31.328 69.9902C31.2108 69.8244 31.1769 69.807 31.0532 69.6238C30.8874 69.3765 30.8737 69.2968 30.87 69.2574C30.8654 69.2116 30.8673 69.1539 30.9616 68.891C31.0193 68.7317 31.0642 68.6254 31.1448 68.433C31.3014 68.0584 31.3152 68.019 31.328 67.975C31.393 67.7607 31.4132 67.5867 31.4196 67.517C31.4453 67.2569 31.4013 67.2358 31.4196 66.9674C31.4242 66.8932 31.4535 66.7339 31.5112 66.4178C31.5854 66.013 31.5946 65.9836 31.6028 65.8682C31.611 65.7455 31.601 65.7656 31.6028 65.4102C31.6046 65.0951 31.6129 65.0695 31.6028 64.9522C31.5845 64.7333 31.535 64.5693 31.5112 64.4942C31.4004 64.1379 31.2969 64.1379 31.1448 63.7614C31.0669 63.5681 31.0294 63.4078 30.9616 63.1202C30.9387 63.0213 30.8956 62.8399 30.87 62.6622C30.8224 62.3352 30.848 62.1328 30.87 61.7462C30.9131 60.9722 30.935 60.5847 30.87 60.2806C30.848 60.1762 30.7931 59.9536 30.7784 59.6394C30.7692 59.4397 30.7857 59.4068 30.7784 59.273C30.7619 58.9836 30.6694 58.8663 30.5036 58.4486C30.3671 58.1024 30.27 57.8578 30.2288 57.5326C30.2077 57.3696 30.2151 57.2074 30.2288 56.8914C30.2599 56.1833 30.3204 56.1229 30.3204 55.7006C30.3204 55.2527 30.2535 55.3278 30.2288 54.693C30.2215 54.5034 30.227 54.4924 30.2288 53.6854C30.2306 52.9608 30.2251 53.0607 30.2288 52.9526C30.2517 52.2354 30.3296 52.1273 30.2288 51.8534C30.1143 51.5401 29.8807 51.3203 29.8624 51.3038C29.7021 51.1554 29.6078 51.1435 29.4044 50.9374C29.2963 50.8284 29.202 50.7304 29.1296 50.571C29.0453 50.3841 29.0398 50.2183 29.038 50.113C29.0371 50.0562 29.038 49.9435 29.1296 49.5634C29.2001 49.2703 29.2359 49.1237 29.3128 48.9222C29.3971 48.7023 29.4566 48.5475 29.5876 48.3726C29.6407 48.3011 29.7461 48.2022 29.954 48.0062C30.3296 47.6526 30.3561 47.6517 30.412 47.5482C30.5009 47.3824 30.4679 47.3201 30.5952 47.0902C30.6483 46.994 30.6529 47.0077 30.7784 46.8154C30.8031 46.7778 30.9185 46.6001 31.0532 46.3574C31.1521 46.1788 31.2016 46.089 31.2364 45.991C31.2675 45.9021 31.2666 45.8792 31.328 45.6246C31.4077 45.2939 31.4086 45.3369 31.4196 45.2582C31.4343 45.1574 31.4205 45.1785 31.4196 44.7086C31.4196 44.4787 31.4196 44.4338 31.4196 44.4338C31.4205 44.2689 31.4224 44.2689 31.4196 44.2506C31.3976 44.0765 31.2483 44.0197 31.1448 43.8842C30.9992 43.6936 31.023 43.45 31.0532 43.1514C31.0816 42.8711 31.1677 42.6686 31.2364 42.5102C31.3243 42.3086 31.4196 42.1575 31.6028 41.869C31.8117 41.5392 31.8428 41.5328 31.8776 41.411C31.9362 41.2085 31.8712 41.1609 31.8776 40.7698C31.8831 40.4473 31.8858 40.2861 31.9692 40.1286C32.0947 39.8931 32.2522 39.8977 32.3356 39.6706C32.3933 39.5121 32.3613 39.3893 32.3356 39.2126C32.3274 39.1539 32.3374 39.2135 32.3356 38.205C32.3338 37.1818 32.3237 37.2422 32.3356 37.1058C32.4025 36.3336 32.4272 36.1897 32.4272 36.1897C32.4593 36.0047 32.4968 35.8353 32.4272 35.6401C32.3585 35.446 32.222 35.3342 32.1524 35.2737C31.7164 34.8964 31.4379 34.4109 31.1448 33.8997C30.9873 33.6249 30.8627 33.4042 30.7784 33.0753C30.7216 32.8537 30.7097 32.6219 30.6868 32.1593C30.6676 31.7682 30.6694 31.454 30.6868 31.1517C30.7134 30.6974 30.7582 30.5664 30.7784 30.5105C30.8205 30.3969 30.8727 30.2989 30.9616 30.0525C31.0129 29.9106 31.0385 29.8391 31.0532 29.7777C31.0761 29.6806 31.1439 29.3839 31.0532 29.0449C30.9973 28.8352 30.9286 28.7912 30.9616 28.6785C30.9854 28.5952 31.0431 28.5494 31.2364 28.4037C31.5918 28.1353 31.579 28.1527 31.6028 28.1289C31.7457 27.9842 31.7613 27.7561 31.786 27.3045C31.8126 26.8273 31.8226 26.5845 31.6944 26.3885C31.6898 26.3812 31.6926 26.3867 31.328 26.0221C30.9827 25.6777 31.0276 25.7198 30.9616 25.6557C30.7179 25.4176 30.7134 25.4258 30.6868 25.3809C30.5833 25.206 30.6483 25.0731 30.6868 24.6481C30.6978 24.5235 30.7262 24.1663 30.6868 23.7321C30.6703 23.5489 30.6547 23.3895 30.5952 23.1825C30.5302 22.9572 30.4725 22.8866 30.412 22.7245C30.2993 22.4259 30.3607 22.3123 30.3204 21.8085C30.2938 21.4714 30.2682 21.1582 30.1372 20.8009C30.0016 20.4327 29.9174 20.4638 29.7708 20.0681C29.7076 19.8968 29.5894 19.5716 29.5876 19.1521C29.5858 18.771 29.6792 18.3277 29.6792 18.3277C29.6792 18.3277 29.7232 18.2627 29.7708 18.2361C29.8166 18.2105 29.8514 18.2279 29.954 18.2361C30.0291 18.2425 30.0813 18.2462 30.1372 18.2361C30.2929 18.2077 30.3882 18.084 30.412 18.0529C30.4697 17.9778 30.4935 17.9045 30.5036 17.8697C30.6795 17.2752 30.5952 16.1293 30.5952 16.1293C30.5879 16.0295 30.5769 15.903 30.5036 15.7629C30.4221 15.6081 30.3241 15.5531 30.1372 15.3965C29.9503 15.2399 29.8294 15.1089 29.5876 14.8469C29.3778 14.6197 29.2716 14.5043 29.2212 14.3889C29.1607 14.2515 29.1507 14.0839 29.1296 13.7477C29.103 13.3108 29.136 13.199 29.038 13.0149C28.9537 12.8555 28.8905 12.8665 28.8548 12.7401C28.7934 12.5193 28.951 12.3636 29.038 12.0989C29.1149 11.8662 29.0691 11.7581 29.038 11.2745C29.0069 10.7872 29.0233 10.4171 29.038 10.0837C29.0765 9.19882 29.202 8.97257 29.038 8.70968C28.9995 8.64739 28.885 8.48801 28.8548 8.25168C28.8383 8.1216 28.8612 8.08038 28.8548 7.97688C28.8429 7.77352 28.7357 7.63338 28.4884 7.33567C28.198 6.98576 28.0524 6.81081 27.9388 6.69447C27.6814 6.42975 27.5009 6.2438 27.206 6.05327C27.0631 5.96075 26.8973 5.8545 26.6564 5.77847C26.3853 5.69237 26.1828 5.69511 26.0152 5.68687C25.505 5.66031 25.33 5.52749 24.8244 5.41207C24.4965 5.33787 24.087 5.33146 23.2672 5.32047C21.6156 5.29757 21.9683 5.46611 21.1604 5.41207C20.9891 5.40108 20.5741 5.36627 20.2444 5.59527C20.085 5.70611 19.9815 5.85358 19.9696 5.87007C19.8441 6.05144 19.8074 6.22182 19.7864 6.32807C19.7323 6.59738 19.7726 6.81172 19.7864 6.87767C19.8221 7.04439 19.8807 7.16072 19.9696 7.33567C20.0566 7.50788 20.1308 7.61048 20.1528 7.79368C20.1574 7.83398 20.1647 7.89718 20.1528 7.97688C20.1308 8.1216 20.0621 8.21778 19.9696 8.34328C19.6517 8.7738 19.6252 8.80586 19.6032 8.89288C19.5739 9.01104 19.5849 9.10722 19.6032 9.25928C19.6297 9.48278 19.6939 9.60003 19.6948 9.80888C19.6948 9.85376 19.692 9.89773 19.6948 9.99208C19.6984 10.1359 19.7076 10.1432 19.6948 10.1753C19.6508 10.2861 19.5061 10.2999 19.5116 10.3585C19.5152 10.3942 19.5693 10.3915 19.6032 10.4501C19.6453 10.5234 19.6105 10.615 19.6032 10.6333C19.5629 10.7386 19.4667 10.7908 19.42 10.8165C19.2276 10.9237 19.0591 11.0702 18.8704 11.1829C18.4289 11.4458 18.4866 11.4201 18.4124 11.4577C18.0973 11.6162 18.0249 11.5923 17.8628 11.7325C17.7886 11.7966 17.6713 11.9166 17.588 12.0073C17.4716 12.1337 17.4625 12.1566 17.4048 12.1905C17.2564 12.2766 17.1785 12.2015 17.0384 12.2821C16.9431 12.337 16.8478 12.4479 16.8552 12.5569C16.8607 12.6375 16.9184 12.6549 16.9468 12.7401C16.9971 12.8894 16.89 13.0479 16.8552 13.1065C16.7764 13.2384 16.7709 13.624 16.7636 14.3889C16.7636 14.4246 16.7636 14.3953 16.7636 15.4881C16.7636 15.9763 16.7636 16.2209 16.7636 16.2209C16.7553 16.2914 16.7288 16.5094 16.7636 16.7705C16.7755 16.8584 16.7938 16.951 16.8552 17.0453C16.9001 17.1149 16.9486 17.1552 17.0384 17.2285C17.1739 17.3403 17.2417 17.3961 17.3132 17.4117C17.4726 17.4474 17.5587 17.343 17.6796 17.4117C17.7043 17.4254 17.7263 17.452 17.7712 17.5033C17.8298 17.572 17.9141 17.6682 17.9544 17.7781C17.9654 17.8065 18.0029 17.9164 17.9544 18.1445C17.9287 18.2672 17.8408 18.684 17.4964 18.9689C17.3864 19.0596 17.2894 19.1054 17.2216 19.2437C17.1721 19.3445 17.1923 19.3848 17.13 19.5185C17.0878 19.6092 17.0567 19.6376 16.9468 19.7933C16.8433 19.9399 16.792 20.0131 16.7636 20.0681C16.682 20.2275 16.7205 20.2916 16.672 20.7093C16.6436 20.9493 16.6289 21.0711 16.5804 21.1673C16.4897 21.3487 16.3981 21.3551 16.3056 21.5337C16.2854 21.574 16.2396 21.6702 16.214 21.9917C16.1975 22.1987 16.2112 22.218 16.214 22.7245C16.2158 23.1459 16.2167 23.3556 16.214 23.3657C16.203 23.4014 16.1709 23.493 16.214 23.5489C16.2506 23.5956 16.3111 23.581 16.3972 23.6405C16.4191 23.6561 16.443 23.6817 16.4888 23.7321C16.6527 23.9126 16.6674 23.9813 16.672 24.0069C16.6738 24.0197 16.6729 24.0197 16.672 24.0985C16.6701 24.2487 16.672 24.3504 16.672 24.3733C16.672 24.6738 16.3056 27.2276 16.5804 27.3045C16.6078 27.3119 16.6262 27.2908 16.672 27.3045C16.803 27.3439 16.8414 27.5784 16.8552 27.6709C16.9459 28.2608 17.0961 29.7191 17.0384 30.1441C17.0365 30.156 17.032 30.1908 17.0384 30.2357C17.0567 30.3603 17.1474 30.4235 17.2216 30.5105C17.3663 30.68 17.2765 30.7359 17.4048 30.8769C17.5348 31.0207 17.6484 30.9869 17.7712 31.1517C17.8234 31.2223 17.8444 31.2846 17.8628 31.3349C18.0057 31.7279 18.2466 32.0925 18.4124 32.3425C18.5067 32.4854 18.5745 32.5862 18.6872 32.7089C18.7632 32.7914 18.8667 32.8921 18.962 32.9837C19.0811 33.0982 19.0985 33.1111 19.1452 33.1669C19.234 33.2741 19.2917 33.3758 19.3284 33.4417C19.3833 33.5398 19.4108 33.5892 19.42 33.6249C19.4676 33.8081 19.3559 33.9886 19.2368 34.1745C19.0591 34.4521 19.0078 34.3999 18.962 34.5409C18.8795 34.7965 19.0636 34.9266 18.962 35.1821C18.9208 35.2857 18.8969 35.2499 18.7788 35.4569C18.6936 35.6063 18.6927 35.6502 18.5956 35.8233C18.5159 35.9662 18.4765 36.0377 18.4124 36.0981C18.2997 36.2053 18.2255 36.1925 18.046 36.2813C17.9681 36.3198 17.7446 36.4334 17.588 36.6477C17.4698 36.809 17.4359 36.9647 17.4048 37.1058C17.3397 37.4035 17.3755 37.6416 17.4048 37.8386C17.4405 38.0758 17.4689 38.2645 17.588 38.4798C17.6906 38.6657 17.7757 38.7161 17.8628 38.9378C17.9214 39.0871 17.9406 39.2107 17.9544 39.3042C17.9818 39.4901 17.9782 39.6385 17.9544 39.9454C17.9159 40.4336 17.8976 40.6772 17.8628 40.7698C17.7574 41.051 17.6319 41.1151 17.588 41.411C17.566 41.5612 17.5779 41.6821 17.588 41.7774C17.6008 41.9065 17.6365 42.1117 17.7712 42.4186C17.871 42.6457 17.9131 42.6723 18.1376 43.0598C18.3611 43.4454 18.4728 43.6387 18.504 43.7926C18.5186 43.8658 18.5873 44.2377 18.4124 44.617C18.2512 44.9669 18.057 44.9449 17.8628 45.3498C17.7153 45.6566 17.8197 45.6859 17.6796 45.8994C17.4716 46.2163 17.2023 46.2117 17.0384 46.5406C16.9752 46.6679 17.0026 46.6926 16.9468 46.907C16.7874 47.5134 16.4787 47.6361 16.3056 48.1894C16.2524 48.3588 16.2396 48.5164 16.214 48.8306C16.1508 49.6046 16.3037 49.7951 16.1224 50.113C16.0711 50.2028 15.9676 50.3475 15.9392 50.571C15.9309 50.6379 15.9373 50.6443 15.9392 50.8458C15.9428 51.2232 15.9208 51.2626 15.9392 51.3954C15.9703 51.6134 16.0509 51.6482 16.1224 51.8534C16.301 52.3636 15.9529 52.5834 16.1224 53.1358C16.1462 53.2118 16.1993 53.3392 16.3056 53.5938C16.4082 53.8384 16.4448 53.9089 16.4888 54.0518C16.5675 54.3074 16.5208 54.3174 16.5804 54.5098C16.7169 54.9522 17.021 55.1034 16.9468 55.3342C16.9239 55.4057 16.8881 55.4102 16.8552 55.5174C16.8039 55.685 16.8433 55.8316 16.8552 55.8838C16.9303 56.2108 16.7755 56.4499 16.7636 56.8914C16.7544 57.2377 16.8451 57.2697 16.9468 57.8074C17.0805 58.5155 17.217 59.2419 16.8552 59.731C16.7553 59.8666 16.6408 59.9509 16.3972 60.2806C16.1956 60.5527 16.1379 60.68 16.1224 60.8302C16.115 60.8989 16.0949 61.1069 16.214 61.2882C16.3504 61.4952 16.5556 61.4934 16.5804 61.6546C16.5941 61.7462 16.53 61.76 16.4888 61.9294C16.4375 62.141 16.5227 62.1822 16.4888 62.3874C16.453 62.6073 16.3486 62.6036 16.3056 62.8454C16.2909 62.9306 16.3001 62.9498 16.3056 63.2118C16.3129 63.5581 16.2964 63.5572 16.3056 63.6698C16.3285 63.9492 16.4356 64.0335 16.5804 64.4026C16.6912 64.6848 16.737 64.9119 16.7636 65.0438C16.8488 65.4643 16.9266 65.8517 16.7636 66.2346C16.6967 66.3922 16.6491 66.4068 16.5804 66.601C16.4952 66.8419 16.4979 67.0215 16.4888 67.2422C16.4576 68.019 16.3395 68.019 16.3972 68.433C16.4237 68.6227 16.453 68.8342 16.5804 69.0742C16.6491 69.2034 16.803 69.4489 16.9468 69.7154C16.9697 69.7585 17.021 69.8556 17.0384 69.9902C17.0494 70.08 17.0411 70.1496 17.0384 70.1734C16.9935 70.5554 17.0164 71.4531 16.9468 71.4558C16.9257 71.4568 16.9312 71.3725 16.8552 71.2726C16.7755 71.1682 16.6839 71.1462 16.5804 71.0894C16.5804 71.0894 16.3486 70.963 16.214 70.723C16.1233 70.5618 16.181 70.5069 16.1224 70.1734C16.0674 69.8565 16.0097 69.8748 15.9392 69.5322C15.8531 69.1145 15.9428 69.1081 15.8476 68.891C15.7468 68.662 15.6149 68.5933 15.5728 68.3414C15.5544 68.2288 15.5645 68.1463 15.5728 68.0666C15.6286 67.5234 15.5297 67.4914 15.5728 66.8758C15.603 66.4362 15.6616 66.3345 15.5728 66.143C15.4821 65.9479 15.3841 65.9708 15.298 65.7766C15.2091 65.576 15.276 65.4643 15.298 64.9522C15.309 64.6976 15.3016 64.5061 15.298 64.4026C15.2824 64.0106 15.2751 63.8155 15.2064 63.5782C15.1322 63.3236 15.0131 63.0937 14.9316 62.937C14.8345 62.7502 14.7969 62.7099 14.7484 62.5706C14.6797 62.3764 14.6687 62.2189 14.6568 62.021C14.6366 61.7023 14.676 61.6839 14.6568 61.3798C14.643 61.1591 14.6339 61.0134 14.5652 60.8302C14.5313 60.7386 14.4598 60.549 14.2904 60.3722C14.1163 60.1908 13.9808 60.1734 13.924 60.0058C13.8882 59.9023 13.9093 59.8153 13.924 59.731C13.9633 59.5075 13.9505 59.2767 13.924 58.815C13.8946 58.2966 13.8058 58.1601 13.924 57.9906C13.9661 57.9302 14.0375 57.8615 14.1072 57.7158C14.1154 57.6984 14.174 57.5747 14.1988 57.441C14.2217 57.3155 14.2162 57.1809 14.0156 56.6166C13.924 56.3592 13.8772 56.2291 13.8324 56.1586C13.6565 55.8847 13.5118 55.903 13.3744 55.7006C13.2901 55.576 13.2864 55.3104 13.2828 54.7846C13.2782 54.1113 13.3304 53.9648 13.3744 53.8686C13.4495 53.7037 13.5063 53.6781 13.5576 53.5022C13.6418 53.2118 13.5814 52.9581 13.5576 52.861C13.5026 52.643 13.4092 52.5001 13.2828 52.3114C13.171 52.1447 13.1261 52.1135 12.8248 51.7618C12.4474 51.3212 12.3988 51.2314 12.3668 51.1206C12.309 50.9191 12.3356 50.7505 12.3668 50.571C12.4281 50.211 12.5536 50.0223 12.7332 49.655C13.0483 49.0083 12.9301 49.0394 13.1912 48.5558C13.4275 48.117 13.5273 48.0877 13.7408 47.6398C13.8461 47.419 13.9478 47.2065 14.0156 46.907C14.0403 46.798 14.1493 46.2868 14.0156 45.6246C13.9404 45.2545 13.8809 45.2866 13.7408 44.7086C13.5942 44.1058 13.6208 43.9107 13.6492 43.7926C13.727 43.4683 13.8745 43.4875 14.0156 43.1514C14.2876 42.5038 14.0055 41.7984 13.924 41.5942C13.8314 41.3624 13.7307 41.2122 13.5576 40.953C13.2342 40.4693 13.073 40.2284 12.8248 40.1286C12.7258 40.0892 12.5683 40.047 12.55 39.9454C12.538 39.8748 12.5985 39.8135 12.6416 39.7622C12.6416 39.7622 12.6901 39.7054 12.9164 39.2126C13.095 38.8242 12.9924 38.3121 12.9164 37.9302C12.8229 37.4612 12.702 37.3164 12.7332 36.9226C12.7423 36.8026 12.7533 36.8163 12.8248 36.4645C12.9237 35.9763 12.9219 35.8517 13.008 35.3653C13.1353 34.6481 13.1673 34.7535 13.1912 34.4493C13.2159 34.1278 13.2443 33.7633 13.0996 33.3501C13.0006 33.0653 12.888 32.9553 12.8248 32.6173Z" fill="#ED2082" stroke="white" stroke-width="2" mask="url(#path-1-inside-1_36_53)"/>
<mask id="path-2-inside-2_36_53" fill="white">
<path d="M41.9537 8.43482C41.9106 8.39818 41.9133 8.36887 41.8621 8.34322C41.8135 8.31849 41.7347 8.30658 41.6789 8.34322C41.6321 8.37345 41.6376 8.41467 41.5873 8.43482C41.546 8.45131 41.5066 8.43849 41.4957 8.43482C41.4517 8.42017 41.415 8.38353 41.4041 8.34322C41.3857 8.27361 41.4508 8.20674 41.4957 8.16002C41.5973 8.05468 41.6413 8.08674 41.7705 7.97682C41.8373 7.92003 41.8282 7.90904 41.9537 7.79362C42.0059 7.74507 42.0214 7.735 42.0453 7.70202C42.1048 7.62141 42.0938 7.57378 42.1369 7.51882C42.1808 7.46295 42.2422 7.44646 42.3201 7.42722C42.4968 7.38234 42.5738 7.44279 42.7781 7.42722C42.8092 7.42447 42.8495 7.41989 43.0071 7.38142C43.3359 7.30081 43.4724 7.24494 43.6483 7.19822C43.716 7.1799 43.7499 7.1744 44.2895 7.10662C44.9572 7.02326 44.9178 7.03059 45.0223 7.01502C45.4519 6.95182 45.6671 6.91976 45.9383 6.83182C46.3276 6.70541 46.2616 6.64862 46.7627 6.46542C47.1813 6.31245 47.2445 6.34542 47.5871 6.19062C47.7373 6.12283 47.8463 6.06146 48.0451 6.00742C48.1953 5.9662 48.2484 5.97078 48.4115 5.91582C48.5699 5.86269 48.6753 5.82605 48.7779 5.73262C48.8805 5.63918 48.9254 5.53751 48.9611 5.45782C48.9941 5.38454 49.0893 5.17111 49.0527 4.90822C49.0188 4.66089 48.8933 4.54823 48.9611 4.45021C48.9748 4.43098 49.0316 4.40625 49.1443 4.35861C49.2698 4.30549 49.3339 4.27892 49.4191 4.26701C49.5088 4.25511 49.5354 4.26976 49.6023 4.26701C49.7763 4.25877 49.9009 4.14061 49.9687 4.08381C50.1244 3.95191 50.1317 4.01511 50.7015 3.71741C50.8224 3.65421 51.186 3.46093 51.6175 3.16781C51.9179 2.96354 52.1195 2.79958 52.1671 2.61821C52.1772 2.58065 52.2046 2.50096 52.2587 2.34341C52.2587 2.34341 52.2862 2.26463 52.3503 2.16021C52.3805 2.11166 52.4034 2.08235 52.4419 2.06861C52.4849 2.05304 52.5243 2.06586 52.5335 2.06861C52.5949 2.08968 52.6196 2.14738 52.6251 2.16021C52.6443 2.20784 52.637 2.25547 52.6251 2.34341C52.6178 2.39471 52.6095 2.42127 52.6251 2.43501C52.6443 2.45241 52.6745 2.42493 52.7167 2.43501C52.7597 2.446 52.768 2.48447 52.8083 2.52661C52.8495 2.56966 52.8797 2.56966 52.9915 2.61821C53.0895 2.66035 53.1087 2.67958 53.1747 2.70981C53.3121 2.77393 53.4119 2.77759 53.5411 2.80141C53.76 2.84171 53.9231 2.91225 54.0907 2.98461C54.3545 3.09911 54.3948 3.1614 54.5487 3.16781C54.5551 3.16781 54.5524 3.16781 54.8235 3.16781C54.8235 3.16781 54.9774 3.16781 55.0067 3.16781C55.2513 3.16781 55.3731 3.16781 55.3731 3.16781C55.4803 3.16231 55.5022 3.1559 55.5563 3.16781C55.5957 3.17697 55.6314 3.19163 55.7395 3.25941C55.9383 3.3849 55.9181 3.39864 56.0143 3.44261C56.0958 3.48017 56.137 3.482 56.1975 3.53421C56.2012 3.53696 56.1993 3.53604 56.2891 3.62581C56.2891 3.62581 56.3312 3.66795 56.3807 3.71741C56.4723 3.80901 56.4723 3.80901 56.4723 3.80901C56.5877 3.92626 56.563 3.99679 56.6555 4.08381C56.7718 4.19373 56.9046 4.16992 56.9303 4.26701C56.9404 4.30549 56.9202 4.31281 56.9303 4.35861C56.9477 4.43739 57.0201 4.46853 57.1135 4.54181C57.2271 4.63067 57.1923 4.64257 57.2967 4.72501C57.446 4.84318 57.5138 4.81662 57.5715 4.90822C57.6347 5.00898 57.6237 5.15462 57.5715 5.18302C57.5376 5.20134 57.4955 5.1647 57.4799 5.18302C57.4588 5.20683 57.5074 5.2966 57.5715 5.36622C57.664 5.46606 57.7446 5.47522 57.7547 5.54942C57.7602 5.58697 57.7419 5.60254 57.7547 5.64102C57.773 5.69415 57.8188 5.70147 57.8463 5.73262C57.9123 5.80773 57.8023 5.95246 57.7547 6.19062C57.73 6.31611 57.7062 6.43336 57.7547 6.55702C57.8078 6.69167 57.9205 6.76312 58.0295 6.83182C58.2365 6.96281 58.4719 7.01227 58.4875 7.01502C58.6121 7.04067 58.6909 7.037 58.7623 7.10662C58.8218 7.16433 58.8402 7.23578 58.8539 7.28982C58.864 7.32829 58.8731 7.38234 58.8539 7.65622C58.8447 7.79454 58.8402 7.80828 58.8539 7.83942C58.8731 7.88339 58.9281 7.93011 59.0371 8.02262C59.0976 8.07392 59.114 8.08491 59.1287 8.11422C59.1644 8.18659 59.1379 8.26628 59.1287 8.29742C59.0353 8.60612 59.1855 8.77191 59.0371 9.03023C58.9675 9.15205 58.9052 9.16579 58.8539 9.30503C58.831 9.36731 58.82 9.42777 58.7623 9.48823C58.7156 9.53769 58.6817 9.54044 58.6707 9.57983C58.6597 9.61738 58.6771 9.66318 58.7623 9.76303C58.8631 9.88211 58.9455 9.94623 58.9455 9.94623C59.3504 10.2632 59.3888 10.3401 59.4035 10.4042C59.4246 10.4922 59.4053 10.5774 59.4035 10.5874C59.398 10.6122 59.3806 10.6772 59.3119 10.7706C59.2496 10.8549 59.1937 10.898 59.1287 10.9538C59.0682 11.006 58.9428 11.1141 58.8539 11.2286C58.8054 11.2909 58.7596 11.3935 58.6707 11.595C58.5983 11.7599 58.5452 11.8808 58.4875 12.053C58.4115 12.282 58.3996 12.3865 58.3959 12.4194C58.3803 12.5752 58.4087 12.5816 58.3959 12.6942C58.3757 12.8756 58.2942 12.9205 58.1211 13.2438C57.98 13.5067 58.024 13.4967 57.9379 13.6102C57.8545 13.7211 57.7153 13.8621 57.5715 13.9766C57.5065 14.0289 57.4451 14.0719 57.3883 14.1598C57.3617 14.2011 57.3636 14.2111 57.2967 14.343C57.2216 14.4923 57.2161 14.4869 57.2051 14.5262C57.1648 14.6655 57.2399 14.6984 57.2051 14.801C57.1639 14.9238 57.0485 14.9018 56.9303 15.0758C56.8845 15.1436 56.9065 15.14 56.8387 15.259C56.7508 15.4148 56.7132 15.4193 56.6555 15.5338C56.596 15.6511 56.6317 15.6529 56.5639 15.8086C56.5071 15.9396 56.4695 16.0257 56.3807 16.0834C56.3019 16.1347 56.2616 16.1118 56.1975 16.175C56.1315 16.2392 56.1132 16.3234 56.1059 16.3582C56.0885 16.4398 56.1022 16.4947 56.1059 16.5414C56.1187 16.7036 56.018 16.7411 55.9227 16.9994C55.8448 17.212 55.8338 17.4025 55.8311 17.4574C55.8302 17.4813 55.8311 17.4803 55.8311 17.7322C55.8311 17.9063 55.8311 17.9933 55.8311 18.007C55.8274 18.1472 55.7679 18.2855 55.6479 18.5566C55.5453 18.7893 55.3997 19.0824 55.2815 19.2895C55.2558 19.3353 55.2339 19.3811 55.1899 19.4727C55.101 19.6586 55.0937 19.7017 55.0983 19.7475C55.102 19.7786 55.1102 19.8042 55.0983 19.8391C55.0791 19.8922 55.0287 19.9187 55.0067 19.9307C54.9023 19.9884 54.7841 20.101 54.7319 20.2055C54.6751 20.319 54.72 20.3749 54.6403 20.4803C54.6385 20.483 54.6394 20.4812 54.5487 20.5719C54.4818 20.6387 54.469 20.6515 54.3655 20.7551C54.2748 20.8457 54.2757 20.8439 54.2739 20.8467C54.185 20.9639 54.1823 21.0986 54.1823 21.1215C54.1823 21.1792 54.1814 21.3202 54.2739 21.3963C54.3463 21.4558 54.4159 21.4274 54.4571 21.4879C54.4919 21.5392 54.4598 21.5859 54.4571 21.6711C54.4507 21.8616 54.5991 21.9001 54.6403 22.1291C54.665 22.2637 54.6156 22.2646 54.6403 22.4039C54.6724 22.5871 54.7621 22.6127 54.8235 22.7703C54.916 23.0084 54.8537 23.3116 54.7319 23.5031C54.6687 23.6029 54.6119 23.6359 54.5487 23.7779C54.524 23.8337 54.5212 23.8539 54.4571 24.0527C54.4076 24.2056 54.3829 24.2817 54.3655 24.3275C54.2885 24.5235 54.1997 24.6655 54.1823 24.6939C54.0678 24.8752 54.033 24.8652 53.9991 24.9687C53.9597 25.0887 53.9762 25.1931 53.9991 25.3351C54.0311 25.5384 54.0742 25.5384 54.0907 25.7015C54.1108 25.9076 54.0449 25.936 54.0907 26.0679C54.1374 26.2034 54.2107 26.1824 54.2739 26.3427C54.3279 26.4801 54.294 26.5479 54.3655 26.6175C54.4388 26.6889 54.5056 26.6468 54.5487 26.7091C54.6146 26.8043 54.48 26.9399 54.5487 27.0755C54.5707 27.1185 54.6037 27.1433 54.6403 27.1671C54.9435 27.3658 55.7615 27.7057 55.7395 27.8083C55.734 27.8358 55.6708 27.8367 55.6479 27.8999C55.6342 27.9383 55.6433 27.9732 55.6479 27.9915C55.6488 27.9942 55.6488 28.0849 55.6479 28.2663C55.647 28.4486 55.5984 28.5905 55.5563 28.9075C55.5059 29.2867 55.5435 29.3334 55.4647 29.4571C55.418 29.5304 55.3419 29.5981 55.1899 29.7319C55.0598 29.8464 54.9893 29.8894 54.9151 30.0067C54.8739 30.0717 54.8482 30.1331 54.8235 30.1899C54.7694 30.3163 54.7676 30.363 54.7319 30.4647C54.654 30.6854 54.5917 30.6689 54.5487 30.8311C54.5368 30.8741 54.5011 31.0262 54.5487 31.1975C54.5661 31.2607 54.5798 31.2708 54.7319 31.5639C54.7887 31.6738 54.818 31.7288 54.8235 31.7471C54.8693 31.8881 54.8372 31.9706 54.8235 32.2051C54.8171 32.3187 54.8262 32.2619 54.8235 32.5715C54.8198 32.8985 54.8098 32.9187 54.8235 33.0295C54.8391 33.1586 54.8684 33.2484 54.9151 33.3959C54.9765 33.5892 55.0415 33.7321 55.0983 33.8539C55.2174 34.1122 55.2192 34.0627 55.2815 34.2203C55.3594 34.4191 55.363 34.5143 55.4647 34.5867C55.5022 34.6133 55.5508 34.6352 55.6479 34.6783C55.7551 34.7259 55.7899 34.7314 55.8311 34.7699C55.897 34.8303 55.9099 34.9073 55.9227 34.9531C55.9767 35.139 56.1664 35.2352 56.2891 35.3195C56.8698 35.7152 57.1776 36.6468 57.2051 36.8767C57.2161 36.971 57.2051 37.0599 57.2051 37.0599C57.1886 37.1891 57.141 37.2788 57.1135 37.3347C57.1135 37.3347 57.0338 37.4932 56.9303 37.7927C56.8653 37.9796 56.9037 37.9832 56.8387 38.3423C56.7535 38.8159 56.661 38.9542 56.7471 39.1667C56.7837 39.2574 56.8103 39.2546 56.8387 39.3499C56.8872 39.5102 56.8836 39.7511 56.7471 39.8995C56.672 39.9819 56.6326 39.9508 56.4723 40.0827C56.4155 40.1294 56.3505 40.1825 56.2891 40.2659C56.2213 40.3575 56.2195 40.4033 56.1059 40.7239C56.0317 40.9337 56.0244 40.9373 56.0143 40.9987C55.9831 41.192 56.0482 41.2185 56.0143 41.3651C55.974 41.5382 55.8732 41.5456 55.8311 41.7315C55.8036 41.8506 55.8329 41.9019 55.8311 42.0063C55.8302 42.0723 55.8155 42.2261 55.5563 42.5559C55.2384 42.9599 54.9133 43.1678 54.7319 43.4719C54.6742 43.569 54.6403 43.6551 54.6403 43.6551C54.5789 43.8117 54.6064 43.8466 54.5487 44.0215C54.4965 44.1809 54.4608 44.1928 54.4571 44.2963C54.4543 44.3806 54.4763 44.4072 54.4571 44.4795C54.4287 44.5839 54.3627 44.5995 54.3655 44.6627C54.3682 44.7397 54.4699 44.7534 54.5487 44.8459C54.6311 44.9421 54.6027 45.0218 54.6403 45.3039C54.6614 45.4624 54.6641 45.3955 54.7319 45.7619C54.7759 46.0028 54.7814 46.0697 54.8235 46.2199C54.8638 46.3665 54.905 46.47 54.9151 46.4947C54.9884 46.677 55.0278 46.71 55.0983 46.8611C55.2082 47.0965 55.1707 47.1387 55.2815 47.4107C55.3703 47.6297 55.4015 47.6177 55.4647 47.7771C55.5554 48.0052 55.5041 48.0629 55.5563 48.5099C55.6058 48.934 55.6854 49.1814 55.5563 49.3343C55.5407 49.3527 55.5059 49.3893 55.4647 49.4259C55.3465 49.5313 55.2421 49.5798 55.1899 49.6091C55.0516 49.6852 54.9737 49.785 54.8235 49.9755C54.7328 50.0909 54.6256 50.2283 54.5487 50.4335C54.4882 50.5947 54.4782 50.7239 54.4571 50.9831C54.4314 51.3047 54.4507 51.5474 54.4571 51.6243C54.4772 51.8488 54.513 52.01 54.5487 52.1739C54.6165 52.4808 54.6504 52.6338 54.7319 52.8151C54.8757 53.133 54.9865 53.1632 55.0067 53.3647C55.0113 53.4105 55.0177 53.5296 55.0983 53.6395C55.134 53.6881 55.1688 53.7128 55.1899 53.7311C55.3703 53.8869 55.4473 54.3064 55.2815 54.5555C55.2183 54.6508 55.1871 54.6178 55.0983 54.7387C54.9948 54.878 55.0085 54.9595 54.9151 55.1967C54.8876 55.2654 54.8317 55.4047 54.7319 55.5631C54.6522 55.6886 54.5578 55.805 54.4571 55.9295C54.3316 56.0853 54.2922 56.1192 54.2739 56.2043C54.2501 56.3115 54.2931 56.339 54.2739 56.4791C54.2556 56.6074 54.2134 56.6294 54.1823 56.7539C54.1438 56.906 54.1667 57.0333 54.1823 57.1204C54.2189 57.3274 54.2867 57.3365 54.3655 57.5784C54.4351 57.7927 54.3875 57.8 54.4571 58.0364C54.5322 58.291 54.589 58.2846 54.6403 58.4944C54.6705 58.618 54.7227 58.8296 54.6403 59.044C54.6156 59.1081 54.5322 59.2088 54.3655 59.4104C54.2043 59.6055 54.1502 59.6494 54.0907 59.7768C54.0595 59.8427 54.0394 59.9123 53.9991 60.0516C53.9991 60.0516 53.9414 60.2503 53.9075 60.418C53.8754 60.5746 53.8397 60.8897 53.9075 61.792C53.9286 62.0695 53.9524 62.3141 53.9075 62.6164C53.8809 62.795 53.8425 62.9122 53.8159 62.9828C53.7582 63.1357 53.727 63.1476 53.6327 63.3492C53.5356 63.5562 53.5557 63.5718 53.4495 63.8072C53.444 63.8191 53.4486 63.8099 53.2663 64.1736C53.0831 64.54 53.084 64.5391 53.0831 64.54C53.0611 64.5665 53.0052 64.6288 52.9915 64.7232C52.9869 64.7552 52.9887 64.7763 52.9915 64.8148C53.0006 64.9558 52.986 64.9577 52.9915 65.0896C52.9988 65.2654 53.0272 65.3003 52.9915 65.3644C52.9759 65.3919 52.964 65.3973 52.8999 65.456C52.79 65.5567 52.7836 65.5787 52.7167 65.6392C52.5775 65.7647 52.5481 65.7189 52.4419 65.8224C52.3759 65.8865 52.3365 65.957 52.2587 66.0972C52.2248 66.1585 52.1955 66.2098 52.1671 66.2804C52.1167 66.404 52.1231 66.4462 52.0755 66.6468C52.0159 66.8968 51.9921 66.8895 51.9839 67.0132C51.9756 67.146 52.0022 67.1661 51.9839 67.288C51.9674 67.3942 51.939 67.4309 51.8923 67.5628C51.8758 67.6104 51.8501 67.7176 51.8007 67.9292C51.7201 68.2718 51.7127 68.3276 51.7091 68.3872C51.7082 68.3945 51.7091 68.3899 51.7091 68.662C51.7091 69.0293 51.7082 69.0238 51.7091 69.0284C51.7256 69.1713 51.7576 69.2482 51.7091 69.3032C51.6779 69.338 51.6312 69.3453 51.6175 69.3948C51.6065 69.4333 51.6294 69.4479 51.6175 69.4864C51.6065 69.5221 51.5827 69.5212 51.5259 69.578C51.4718 69.632 51.4718 69.6549 51.4343 69.6696C51.4031 69.6815 51.3674 69.6797 51.3427 69.6696C51.274 69.6403 51.2657 69.5285 51.2511 69.3948C51.2474 69.3591 51.2126 69.0586 51.1595 68.8452C51.1192 68.6821 51.1009 68.705 51.0679 68.5704C51.0138 68.3515 51.0551 68.2663 51.0679 67.8376C51.0715 67.7103 51.077 67.528 51.0679 67.288C51.0596 67.0773 51.0468 66.9894 51.0679 66.83C51.078 66.7521 51.0963 66.6193 51.1595 66.4636C51.2639 66.2071 51.3555 66.2272 51.4343 66.0056C51.4902 65.848 51.4508 65.8215 51.5259 65.5476C51.5378 65.5027 51.5433 65.4908 51.6175 65.2728C51.775 64.8139 51.7879 64.769 51.8007 64.7232C51.8648 64.4905 51.8877 64.3073 51.8923 64.2652C51.9207 64.027 51.8914 63.9922 51.8923 63.624C51.8941 63.1211 51.9482 63.0634 51.8923 62.7996C51.8676 62.6832 51.8465 62.6466 51.8007 62.4332C51.7604 62.2445 51.7558 62.1749 51.7091 62.0668C51.6495 61.9294 51.5863 61.8781 51.5259 61.792C51.3326 61.5162 51.4984 61.3495 51.3427 60.7844C51.2877 60.5856 51.2547 60.4647 51.1595 60.3264C51.1293 60.2824 51.0633 60.1935 50.9763 60.0516C50.8948 59.9178 50.859 59.8436 50.8847 59.7768C50.903 59.7282 50.9442 59.7044 50.9763 59.6852C51.1073 59.6064 51.2163 59.4965 51.3427 59.4104C51.547 59.2711 51.6495 59.2006 51.7091 59.1356C51.7476 59.0934 51.83 59.0018 51.8923 58.8608C51.9408 58.7518 51.9417 58.6913 51.9839 58.4944C51.9995 58.4192 51.9949 58.4522 52.0755 58.128C52.3081 57.1973 52.2761 57.2312 52.3503 57.0287C52.4446 56.7695 52.5033 56.6972 52.5335 56.4791C52.5536 56.3353 52.5417 56.2676 52.5335 56.0211C52.5179 55.5613 52.55 55.5787 52.5335 55.1967C52.517 54.8258 52.5088 54.6407 52.4419 54.4639C52.3219 54.147 52.2587 54.0059 52.2587 54.0059C52.222 53.9235 52.1854 53.8466 52.1671 53.7311C52.1497 53.6194 52.1588 53.5315 52.1671 53.4563C52.1753 53.3831 52.1918 53.2392 52.2587 53.0899C52.3219 52.948 52.3668 52.9434 52.5335 52.7235C52.6901 52.5174 52.768 52.4139 52.8083 52.2655C52.8422 52.1419 52.8211 52.0942 52.8083 51.8075C52.7927 51.465 52.8184 51.4384 52.8083 51.1663C52.7982 50.8998 52.7707 50.8586 52.7167 50.4335C52.6434 49.8574 52.6278 49.4241 52.6251 49.3343C52.6187 49.1319 52.6205 48.9551 52.6251 48.6015C52.6333 47.9173 52.6562 47.8999 52.6251 47.6855C52.6123 47.5948 52.5756 47.3759 52.5335 47.0443C52.5161 46.9069 52.5051 46.8052 52.5335 46.6779C52.5674 46.5259 52.6315 46.4517 52.7167 46.3115C52.7268 46.2941 52.8953 46.012 52.9915 45.6703C53.0639 45.412 53.0748 45.1922 53.0831 45.0291C53.0932 44.8221 53.0748 44.8322 53.0831 44.6627C53.1032 44.223 53.226 44.1333 53.2663 43.6551C53.2754 43.5443 53.2874 43.3941 53.2663 43.1971C53.2498 43.0478 53.2306 43.013 53.1747 42.7391C53.1261 42.5 53.0987 42.3626 53.0831 42.1895C53.0684 42.021 53.0776 41.9578 53.0831 41.6399C53.0868 41.4265 53.0831 41.2121 53.0831 40.9987C53.0831 40.6323 53.0831 40.2659 53.0831 39.8995C53.0831 39.7273 53.0538 39.6366 53.0831 39.4415C53.0941 39.3664 53.1142 39.2775 53.0831 39.1667C53.0776 39.1475 53.0648 39.1062 52.9915 38.9835C52.9246 38.8708 52.8742 38.803 52.8083 38.7087C52.713 38.5722 52.6663 38.5044 52.6251 38.4339C52.56 38.3221 52.572 38.3194 52.4419 38.0675C52.3888 37.9649 52.3768 37.9448 52.3503 37.8843C52.3164 37.8074 52.277 37.7158 52.2587 37.6095C52.2404 37.5078 52.2514 37.4437 52.2587 37.3347C52.2733 37.1323 52.2587 37.0526 52.2587 36.8767C52.2587 36.4984 52.3246 35.8004 52.3503 35.5027C52.4144 34.7562 52.3613 34.9687 52.4419 33.6707C52.4639 33.3134 52.484 33.0414 52.4419 32.6631C52.4126 32.3984 52.3842 32.3681 52.3503 32.0219C52.3127 31.6427 52.3338 31.552 52.2587 31.3807C52.1882 31.2195 52.1414 31.2332 51.8923 30.9227C51.6633 30.6378 51.6944 30.6149 51.4343 30.2815C51.2401 30.0323 51.2062 30.0232 51.0679 29.8235C50.9497 29.6531 50.9653 29.6458 50.7931 29.3655C50.5311 28.9386 50.4652 28.9066 50.4267 28.7243C50.4111 28.6482 50.4221 28.6556 50.4267 28.2663C50.4313 27.8504 50.4184 27.8229 50.4267 27.6251C50.4358 27.3906 50.456 27.3759 50.5183 26.8923C50.5632 26.5433 50.5952 26.2923 50.6099 25.9763C50.6154 25.8609 50.6135 25.6529 50.6099 25.2435C50.6016 24.333 50.5897 24.3522 50.6099 24.2359C50.6658 23.9079 50.7546 23.7705 50.7015 23.5031C50.6822 23.4069 50.6575 23.3602 50.6099 23.1367C50.5613 22.9104 50.5668 22.8683 50.5183 22.7703C50.4542 22.642 50.4129 22.6512 50.3351 22.4955C50.2792 22.3828 50.2591 22.2949 50.2435 22.2207C50.2023 22.0292 50.2334 21.9651 50.2435 21.9459C50.2526 21.9285 50.2801 21.8781 50.3351 21.8543C50.4047 21.824 50.4349 21.8735 50.5183 21.8543C50.6016 21.835 50.608 21.7764 50.7015 21.7627C50.7454 21.7562 50.7454 21.7691 50.7931 21.7627C50.8948 21.7498 50.9625 21.6848 50.9763 21.6711C51.0431 21.6042 51.0606 21.5208 51.0679 21.4879C51.1696 21.0134 51.1439 21.4943 51.2511 20.7551C51.3033 20.396 51.3289 20.2164 51.3427 20.0223C51.3921 19.327 51.35 18.7609 51.3427 18.6482C51.3234 18.3661 51.3912 17.452 51.5259 15.6254C51.5259 15.6254 51.6074 14.5281 51.4343 13.3354C51.4096 13.1623 51.3967 13.0753 51.3427 12.969C51.2703 12.8271 51.1851 12.7648 51.1595 12.6026C51.1467 12.5193 51.1558 12.4478 51.1595 12.4194C51.1723 12.3278 51.1934 12.3086 51.2511 12.1446C51.3161 11.9596 51.2978 11.9569 51.3427 11.8698C51.4013 11.7553 51.4434 11.7388 51.4343 11.6866C51.427 11.6454 51.3967 11.6344 51.2511 11.5034C51.1961 11.454 51.1686 11.4292 51.1595 11.4118C51.1128 11.3257 51.1604 11.2524 51.1595 11.137C51.1595 11.0757 51.1457 11.0683 51.0679 10.8622C50.9479 10.5444 50.9598 10.5068 50.8847 10.4042C50.8261 10.3255 50.7656 10.2742 50.7015 10.221C50.5971 10.134 50.5009 10.079 50.4267 10.0378C50.3891 10.0168 50.3278 9.98287 50.2435 9.94623C50.1409 9.90134 50.0658 9.86928 49.9687 9.85463C49.8093 9.83081 49.802 9.88669 49.6939 9.85463C49.5931 9.82532 49.5968 9.77585 49.4191 9.67143C49.3458 9.62838 49.2881 9.60273 49.2359 9.57983C49.1287 9.53219 49.0563 9.50105 48.9611 9.48823C48.8786 9.47723 48.8741 9.49281 48.7779 9.48823C48.5947 9.47998 48.4564 9.41769 48.4115 9.39663C48.2603 9.32609 48.286 9.28671 48.1367 9.21343C48.0707 9.18045 47.9361 9.1145 47.7703 9.12183C47.6127 9.12824 47.6081 9.19327 47.4039 9.21343C47.359 9.21801 47.359 9.21434 47.1291 9.21343C47.0759 9.21343 47.1025 9.21343 46.8543 9.21343C46.3138 9.21343 46.3312 9.21159 46.3047 9.21343C46.0244 9.22991 46.0528 9.27755 45.7551 9.30503C45.4784 9.33067 45.2137 9.31235 45.1139 9.30503C44.9004 9.28945 44.8107 9.26655 44.6559 9.30503C44.5056 9.34258 44.4937 9.38838 44.3811 9.39663C44.2464 9.40579 44.2098 9.34441 43.9231 9.21343C43.6473 9.08793 43.4889 9.05771 43.4651 8.93863C43.4577 8.90107 43.4724 8.90015 43.4651 8.84703C43.4541 8.76458 43.411 8.7252 43.2819 8.57222C43.1637 8.43299 43.1509 8.40734 43.0987 8.38902C43.0785 8.3817 43.0391 8.3707 42.9155 8.38902C42.7286 8.4165 42.6947 8.45956 42.5491 8.48062C42.5381 8.48246 42.5472 8.48062 42.2743 8.48062C42.0709 8.48062 42.0095 8.48154 41.9537 8.43482Z"/>
</mask>
<path d="M41.9537 8.43482C41.9106 8.39818 41.9133 8.36887 41.8621 8.34322C41.8135 8.31849 41.7347 8.30658 41.6789 8.34322C41.6321 8.37345 41.6376 8.41467 41.5873 8.43482C41.546 8.45131 41.5066 8.43849 41.4957 8.43482C41.4517 8.42017 41.415 8.38353 41.4041 8.34322C41.3857 8.27361 41.4508 8.20674 41.4957 8.16002C41.5973 8.05468 41.6413 8.08674 41.7705 7.97682C41.8373 7.92003 41.8282 7.90904 41.9537 7.79362C42.0059 7.74507 42.0214 7.735 42.0453 7.70202C42.1048 7.62141 42.0938 7.57378 42.1369 7.51882C42.1808 7.46295 42.2422 7.44646 42.3201 7.42722C42.4968 7.38234 42.5738 7.44279 42.7781 7.42722C42.8092 7.42447 42.8495 7.41989 43.0071 7.38142C43.3359 7.30081 43.4724 7.24494 43.6483 7.19822C43.716 7.1799 43.7499 7.1744 44.2895 7.10662C44.9572 7.02326 44.9178 7.03059 45.0223 7.01502C45.4519 6.95182 45.6671 6.91976 45.9383 6.83182C46.3276 6.70541 46.2616 6.64862 46.7627 6.46542C47.1813 6.31245 47.2445 6.34542 47.5871 6.19062C47.7373 6.12283 47.8463 6.06146 48.0451 6.00742C48.1953 5.9662 48.2484 5.97078 48.4115 5.91582C48.5699 5.86269 48.6753 5.82605 48.7779 5.73262C48.8805 5.63918 48.9254 5.53751 48.9611 5.45782C48.9941 5.38454 49.0893 5.17111 49.0527 4.90822C49.0188 4.66089 48.8933 4.54823 48.9611 4.45021C48.9748 4.43098 49.0316 4.40625 49.1443 4.35861C49.2698 4.30549 49.3339 4.27892 49.4191 4.26701C49.5088 4.25511 49.5354 4.26976 49.6023 4.26701C49.7763 4.25877 49.9009 4.14061 49.9687 4.08381C50.1244 3.95191 50.1317 4.01511 50.7015 3.71741C50.8224 3.65421 51.186 3.46093 51.6175 3.16781C51.9179 2.96354 52.1195 2.79958 52.1671 2.61821C52.1772 2.58065 52.2046 2.50096 52.2587 2.34341C52.2587 2.34341 52.2862 2.26463 52.3503 2.16021C52.3805 2.11166 52.4034 2.08235 52.4419 2.06861C52.4849 2.05304 52.5243 2.06586 52.5335 2.06861C52.5949 2.08968 52.6196 2.14738 52.6251 2.16021C52.6443 2.20784 52.637 2.25547 52.6251 2.34341C52.6178 2.39471 52.6095 2.42127 52.6251 2.43501C52.6443 2.45241 52.6745 2.42493 52.7167 2.43501C52.7597 2.446 52.768 2.48447 52.8083 2.52661C52.8495 2.56966 52.8797 2.56966 52.9915 2.61821C53.0895 2.66035 53.1087 2.67958 53.1747 2.70981C53.3121 2.77393 53.4119 2.77759 53.5411 2.80141C53.76 2.84171 53.9231 2.91225 54.0907 2.98461C54.3545 3.09911 54.3948 3.1614 54.5487 3.16781C54.5551 3.16781 54.5524 3.16781 54.8235 3.16781C54.8235 3.16781 54.9774 3.16781 55.0067 3.16781C55.2513 3.16781 55.3731 3.16781 55.3731 3.16781C55.4803 3.16231 55.5022 3.1559 55.5563 3.16781C55.5957 3.17697 55.6314 3.19163 55.7395 3.25941C55.9383 3.3849 55.9181 3.39864 56.0143 3.44261C56.0958 3.48017 56.137 3.482 56.1975 3.53421C56.2012 3.53696 56.1993 3.53604 56.2891 3.62581C56.2891 3.62581 56.3312 3.66795 56.3807 3.71741C56.4723 3.80901 56.4723 3.80901 56.4723 3.80901C56.5877 3.92626 56.563 3.99679 56.6555 4.08381C56.7718 4.19373 56.9046 4.16992 56.9303 4.26701C56.9404 4.30549 56.9202 4.31281 56.9303 4.35861C56.9477 4.43739 57.0201 4.46853 57.1135 4.54181C57.2271 4.63067 57.1923 4.64257 57.2967 4.72501C57.446 4.84318 57.5138 4.81662 57.5715 4.90822C57.6347 5.00898 57.6237 5.15462 57.5715 5.18302C57.5376 5.20134 57.4955 5.1647 57.4799 5.18302C57.4588 5.20683 57.5074 5.2966 57.5715 5.36622C57.664 5.46606 57.7446 5.47522 57.7547 5.54942C57.7602 5.58697 57.7419 5.60254 57.7547 5.64102C57.773 5.69415 57.8188 5.70147 57.8463 5.73262C57.9123 5.80773 57.8023 5.95246 57.7547 6.19062C57.73 6.31611 57.7062 6.43336 57.7547 6.55702C57.8078 6.69167 57.9205 6.76312 58.0295 6.83182C58.2365 6.96281 58.4719 7.01227 58.4875 7.01502C58.6121 7.04067 58.6909 7.037 58.7623 7.10662C58.8218 7.16433 58.8402 7.23578 58.8539 7.28982C58.864 7.32829 58.8731 7.38234 58.8539 7.65622C58.8447 7.79454 58.8402 7.80828 58.8539 7.83942C58.8731 7.88339 58.9281 7.93011 59.0371 8.02262C59.0976 8.07392 59.114 8.08491 59.1287 8.11422C59.1644 8.18659 59.1379 8.26628 59.1287 8.29742C59.0353 8.60612 59.1855 8.77191 59.0371 9.03023C58.9675 9.15205 58.9052 9.16579 58.8539 9.30503C58.831 9.36731 58.82 9.42777 58.7623 9.48823C58.7156 9.53769 58.6817 9.54044 58.6707 9.57983C58.6597 9.61738 58.6771 9.66318 58.7623 9.76303C58.8631 9.88211 58.9455 9.94623 58.9455 9.94623C59.3504 10.2632 59.3888 10.3401 59.4035 10.4042C59.4246 10.4922 59.4053 10.5774 59.4035 10.5874C59.398 10.6122 59.3806 10.6772 59.3119 10.7706C59.2496 10.8549 59.1937 10.898 59.1287 10.9538C59.0682 11.006 58.9428 11.1141 58.8539 11.2286C58.8054 11.2909 58.7596 11.3935 58.6707 11.595C58.5983 11.7599 58.5452 11.8808 58.4875 12.053C58.4115 12.282 58.3996 12.3865 58.3959 12.4194C58.3803 12.5752 58.4087 12.5816 58.3959 12.6942C58.3757 12.8756 58.2942 12.9205 58.1211 13.2438C57.98 13.5067 58.024 13.4967 57.9379 13.6102C57.8545 13.7211 57.7153 13.8621 57.5715 13.9766C57.5065 14.0289 57.4451 14.0719 57.3883 14.1598C57.3617 14.2011 57.3636 14.2111 57.2967 14.343C57.2216 14.4923 57.2161 14.4869 57.2051 14.5262C57.1648 14.6655 57.2399 14.6984 57.2051 14.801C57.1639 14.9238 57.0485 14.9018 56.9303 15.0758C56.8845 15.1436 56.9065 15.14 56.8387 15.259C56.7508 15.4148 56.7132 15.4193 56.6555 15.5338C56.596 15.6511 56.6317 15.6529 56.5639 15.8086C56.5071 15.9396 56.4695 16.0257 56.3807 16.0834C56.3019 16.1347 56.2616 16.1118 56.1975 16.175C56.1315 16.2392 56.1132 16.3234 56.1059 16.3582C56.0885 16.4398 56.1022 16.4947 56.1059 16.5414C56.1187 16.7036 56.018 16.7411 55.9227 16.9994C55.8448 17.212 55.8338 17.4025 55.8311 17.4574C55.8302 17.4813 55.8311 17.4803 55.8311 17.7322C55.8311 17.9063 55.8311 17.9933 55.8311 18.007C55.8274 18.1472 55.7679 18.2855 55.6479 18.5566C55.5453 18.7893 55.3997 19.0824 55.2815 19.2895C55.2558 19.3353 55.2339 19.3811 55.1899 19.4727C55.101 19.6586 55.0937 19.7017 55.0983 19.7475C55.102 19.7786 55.1102 19.8042 55.0983 19.8391C55.0791 19.8922 55.0287 19.9187 55.0067 19.9307C54.9023 19.9884 54.7841 20.101 54.7319 20.2055C54.6751 20.319 54.72 20.3749 54.6403 20.4803C54.6385 20.483 54.6394 20.4812 54.5487 20.5719C54.4818 20.6387 54.469 20.6515 54.3655 20.7551C54.2748 20.8457 54.2757 20.8439 54.2739 20.8467C54.185 20.9639 54.1823 21.0986 54.1823 21.1215C54.1823 21.1792 54.1814 21.3202 54.2739 21.3963C54.3463 21.4558 54.4159 21.4274 54.4571 21.4879C54.4919 21.5392 54.4598 21.5859 54.4571 21.6711C54.4507 21.8616 54.5991 21.9001 54.6403 22.1291C54.665 22.2637 54.6156 22.2646 54.6403 22.4039C54.6724 22.5871 54.7621 22.6127 54.8235 22.7703C54.916 23.0084 54.8537 23.3116 54.7319 23.5031C54.6687 23.6029 54.6119 23.6359 54.5487 23.7779C54.524 23.8337 54.5212 23.8539 54.4571 24.0527C54.4076 24.2056 54.3829 24.2817 54.3655 24.3275C54.2885 24.5235 54.1997 24.6655 54.1823 24.6939C54.0678 24.8752 54.033 24.8652 53.9991 24.9687C53.9597 25.0887 53.9762 25.1931 53.9991 25.3351C54.0311 25.5384 54.0742 25.5384 54.0907 25.7015C54.1108 25.9076 54.0449 25.936 54.0907 26.0679C54.1374 26.2034 54.2107 26.1824 54.2739 26.3427C54.3279 26.4801 54.294 26.5479 54.3655 26.6175C54.4388 26.6889 54.5056 26.6468 54.5487 26.7091C54.6146 26.8043 54.48 26.9399 54.5487 27.0755C54.5707 27.1185 54.6037 27.1433 54.6403 27.1671C54.9435 27.3658 55.7615 27.7057 55.7395 27.8083C55.734 27.8358 55.6708 27.8367 55.6479 27.8999C55.6342 27.9383 55.6433 27.9732 55.6479 27.9915C55.6488 27.9942 55.6488 28.0849 55.6479 28.2663C55.647 28.4486 55.5984 28.5905 55.5563 28.9075C55.5059 29.2867 55.5435 29.3334 55.4647 29.4571C55.418 29.5304 55.3419 29.5981 55.1899 29.7319C55.0598 29.8464 54.9893 29.8894 54.9151 30.0067C54.8739 30.0717 54.8482 30.1331 54.8235 30.1899C54.7694 30.3163 54.7676 30.363 54.7319 30.4647C54.654 30.6854 54.5917 30.6689 54.5487 30.8311C54.5368 30.8741 54.5011 31.0262 54.5487 31.1975C54.5661 31.2607 54.5798 31.2708 54.7319 31.5639C54.7887 31.6738 54.818 31.7288 54.8235 31.7471C54.8693 31.8881 54.8372 31.9706 54.8235 32.2051C54.8171 32.3187 54.8262 32.2619 54.8235 32.5715C54.8198 32.8985 54.8098 32.9187 54.8235 33.0295C54.8391 33.1586 54.8684 33.2484 54.9151 33.3959C54.9765 33.5892 55.0415 33.7321 55.0983 33.8539C55.2174 34.1122 55.2192 34.0627 55.2815 34.2203C55.3594 34.4191 55.363 34.5143 55.4647 34.5867C55.5022 34.6133 55.5508 34.6352 55.6479 34.6783C55.7551 34.7259 55.7899 34.7314 55.8311 34.7699C55.897 34.8303 55.9099 34.9073 55.9227 34.9531C55.9767 35.139 56.1664 35.2352 56.2891 35.3195C56.8698 35.7152 57.1776 36.6468 57.2051 36.8767C57.2161 36.971 57.2051 37.0599 57.2051 37.0599C57.1886 37.1891 57.141 37.2788 57.1135 37.3347C57.1135 37.3347 57.0338 37.4932 56.9303 37.7927C56.8653 37.9796 56.9037 37.9832 56.8387 38.3423C56.7535 38.8159 56.661 38.9542 56.7471 39.1667C56.7837 39.2574 56.8103 39.2546 56.8387 39.3499C56.8872 39.5102 56.8836 39.7511 56.7471 39.8995C56.672 39.9819 56.6326 39.9508 56.4723 40.0827C56.4155 40.1294 56.3505 40.1825 56.2891 40.2659C56.2213 40.3575 56.2195 40.4033 56.1059 40.7239C56.0317 40.9337 56.0244 40.9373 56.0143 40.9987C55.9831 41.192 56.0482 41.2185 56.0143 41.3651C55.974 41.5382 55.8732 41.5456 55.8311 41.7315C55.8036 41.8506 55.8329 41.9019 55.8311 42.0063C55.8302 42.0723 55.8155 42.2261 55.5563 42.5559C55.2384 42.9599 54.9133 43.1678 54.7319 43.4719C54.6742 43.569 54.6403 43.6551 54.6403 43.6551C54.5789 43.8117 54.6064 43.8466 54.5487 44.0215C54.4965 44.1809 54.4608 44.1928 54.4571 44.2963C54.4543 44.3806 54.4763 44.4072 54.4571 44.4795C54.4287 44.5839 54.3627 44.5995 54.3655 44.6627C54.3682 44.7397 54.4699 44.7534 54.5487 44.8459C54.6311 44.9421 54.6027 45.0218 54.6403 45.3039C54.6614 45.4624 54.6641 45.3955 54.7319 45.7619C54.7759 46.0028 54.7814 46.0697 54.8235 46.2199C54.8638 46.3665 54.905 46.47 54.9151 46.4947C54.9884 46.677 55.0278 46.71 55.0983 46.8611C55.2082 47.0965 55.1707 47.1387 55.2815 47.4107C55.3703 47.6297 55.4015 47.6177 55.4647 47.7771C55.5554 48.0052 55.5041 48.0629 55.5563 48.5099C55.6058 48.934 55.6854 49.1814 55.5563 49.3343C55.5407 49.3527 55.5059 49.3893 55.4647 49.4259C55.3465 49.5313 55.2421 49.5798 55.1899 49.6091C55.0516 49.6852 54.9737 49.785 54.8235 49.9755C54.7328 50.0909 54.6256 50.2283 54.5487 50.4335C54.4882 50.5947 54.4782 50.7239 54.4571 50.9831C54.4314 51.3047 54.4507 51.5474 54.4571 51.6243C54.4772 51.8488 54.513 52.01 54.5487 52.1739C54.6165 52.4808 54.6504 52.6338 54.7319 52.8151C54.8757 53.133 54.9865 53.1632 55.0067 53.3647C55.0113 53.4105 55.0177 53.5296 55.0983 53.6395C55.134 53.6881 55.1688 53.7128 55.1899 53.7311C55.3703 53.8869 55.4473 54.3064 55.2815 54.5555C55.2183 54.6508 55.1871 54.6178 55.0983 54.7387C54.9948 54.878 55.0085 54.9595 54.9151 55.1967C54.8876 55.2654 54.8317 55.4047 54.7319 55.5631C54.6522 55.6886 54.5578 55.805 54.4571 55.9295C54.3316 56.0853 54.2922 56.1192 54.2739 56.2043C54.2501 56.3115 54.2931 56.339 54.2739 56.4791C54.2556 56.6074 54.2134 56.6294 54.1823 56.7539C54.1438 56.906 54.1667 57.0333 54.1823 57.1204C54.2189 57.3274 54.2867 57.3365 54.3655 57.5784C54.4351 57.7927 54.3875 57.8 54.4571 58.0364C54.5322 58.291 54.589 58.2846 54.6403 58.4944C54.6705 58.618 54.7227 58.8296 54.6403 59.044C54.6156 59.1081 54.5322 59.2088 54.3655 59.4104C54.2043 59.6055 54.1502 59.6494 54.0907 59.7768C54.0595 59.8427 54.0394 59.9123 53.9991 60.0516C53.9991 60.0516 53.9414 60.2503 53.9075 60.418C53.8754 60.5746 53.8397 60.8897 53.9075 61.792C53.9286 62.0695 53.9524 62.3141 53.9075 62.6164C53.8809 62.795 53.8425 62.9122 53.8159 62.9828C53.7582 63.1357 53.727 63.1476 53.6327 63.3492C53.5356 63.5562 53.5557 63.5718 53.4495 63.8072C53.444 63.8191 53.4486 63.8099 53.2663 64.1736C53.0831 64.54 53.084 64.5391 53.0831 64.54C53.0611 64.5665 53.0052 64.6288 52.9915 64.7232C52.9869 64.7552 52.9887 64.7763 52.9915 64.8148C53.0006 64.9558 52.986 64.9577 52.9915 65.0896C52.9988 65.2654 53.0272 65.3003 52.9915 65.3644C52.9759 65.3919 52.964 65.3973 52.8999 65.456C52.79 65.5567 52.7836 65.5787 52.7167 65.6392C52.5775 65.7647 52.5481 65.7189 52.4419 65.8224C52.3759 65.8865 52.3365 65.957 52.2587 66.0972C52.2248 66.1585 52.1955 66.2098 52.1671 66.2804C52.1167 66.404 52.1231 66.4462 52.0755 66.6468C52.0159 66.8968 51.9921 66.8895 51.9839 67.0132C51.9756 67.146 52.0022 67.1661 51.9839 67.288C51.9674 67.3942 51.939 67.4309 51.8923 67.5628C51.8758 67.6104 51.8501 67.7176 51.8007 67.9292C51.7201 68.2718 51.7127 68.3276 51.7091 68.3872C51.7082 68.3945 51.7091 68.3899 51.7091 68.662C51.7091 69.0293 51.7082 69.0238 51.7091 69.0284C51.7256 69.1713 51.7576 69.2482 51.7091 69.3032C51.6779 69.338 51.6312 69.3453 51.6175 69.3948C51.6065 69.4333 51.6294 69.4479 51.6175 69.4864C51.6065 69.5221 51.5827 69.5212 51.5259 69.578C51.4718 69.632 51.4718 69.6549 51.4343 69.6696C51.4031 69.6815 51.3674 69.6797 51.3427 69.6696C51.274 69.6403 51.2657 69.5285 51.2511 69.3948C51.2474 69.3591 51.2126 69.0586 51.1595 68.8452C51.1192 68.6821 51.1009 68.705 51.0679 68.5704C51.0138 68.3515 51.0551 68.2663 51.0679 67.8376C51.0715 67.7103 51.077 67.528 51.0679 67.288C51.0596 67.0773 51.0468 66.9894 51.0679 66.83C51.078 66.7521 51.0963 66.6193 51.1595 66.4636C51.2639 66.2071 51.3555 66.2272 51.4343 66.0056C51.4902 65.848 51.4508 65.8215 51.5259 65.5476C51.5378 65.5027 51.5433 65.4908 51.6175 65.2728C51.775 64.8139 51.7879 64.769 51.8007 64.7232C51.8648 64.4905 51.8877 64.3073 51.8923 64.2652C51.9207 64.027 51.8914 63.9922 51.8923 63.624C51.8941 63.1211 51.9482 63.0634 51.8923 62.7996C51.8676 62.6832 51.8465 62.6466 51.8007 62.4332C51.7604 62.2445 51.7558 62.1749 51.7091 62.0668C51.6495 61.9294 51.5863 61.8781 51.5259 61.792C51.3326 61.5162 51.4984 61.3495 51.3427 60.7844C51.2877 60.5856 51.2547 60.4647 51.1595 60.3264C51.1293 60.2824 51.0633 60.1935 50.9763 60.0516C50.8948 59.9178 50.859 59.8436 50.8847 59.7768C50.903 59.7282 50.9442 59.7044 50.9763 59.6852C51.1073 59.6064 51.2163 59.4965 51.3427 59.4104C51.547 59.2711 51.6495 59.2006 51.7091 59.1356C51.7476 59.0934 51.83 59.0018 51.8923 58.8608C51.9408 58.7518 51.9417 58.6913 51.9839 58.4944C51.9995 58.4192 51.9949 58.4522 52.0755 58.128C52.3081 57.1973 52.2761 57.2312 52.3503 57.0287C52.4446 56.7695 52.5033 56.6972 52.5335 56.4791C52.5536 56.3353 52.5417 56.2676 52.5335 56.0211C52.5179 55.5613 52.55 55.5787 52.5335 55.1967C52.517 54.8258 52.5088 54.6407 52.4419 54.4639C52.3219 54.147 52.2587 54.0059 52.2587 54.0059C52.222 53.9235 52.1854 53.8466 52.1671 53.7311C52.1497 53.6194 52.1588 53.5315 52.1671 53.4563C52.1753 53.3831 52.1918 53.2392 52.2587 53.0899C52.3219 52.948 52.3668 52.9434 52.5335 52.7235C52.6901 52.5174 52.768 52.4139 52.8083 52.2655C52.8422 52.1419 52.8211 52.0942 52.8083 51.8075C52.7927 51.465 52.8184 51.4384 52.8083 51.1663C52.7982 50.8998 52.7707 50.8586 52.7167 50.4335C52.6434 49.8574 52.6278 49.4241 52.6251 49.3343C52.6187 49.1319 52.6205 48.9551 52.6251 48.6015C52.6333 47.9173 52.6562 47.8999 52.6251 47.6855C52.6123 47.5948 52.5756 47.3759 52.5335 47.0443C52.5161 46.9069 52.5051 46.8052 52.5335 46.6779C52.5674 46.5259 52.6315 46.4517 52.7167 46.3115C52.7268 46.2941 52.8953 46.012 52.9915 45.6703C53.0639 45.412 53.0748 45.1922 53.0831 45.0291C53.0932 44.8221 53.0748 44.8322 53.0831 44.6627C53.1032 44.223 53.226 44.1333 53.2663 43.6551C53.2754 43.5443 53.2874 43.3941 53.2663 43.1971C53.2498 43.0478 53.2306 43.013 53.1747 42.7391C53.1261 42.5 53.0987 42.3626 53.0831 42.1895C53.0684 42.021 53.0776 41.9578 53.0831 41.6399C53.0868 41.4265 53.0831 41.2121 53.0831 40.9987C53.0831 40.6323 53.0831 40.2659 53.0831 39.8995C53.0831 39.7273 53.0538 39.6366 53.0831 39.4415C53.0941 39.3664 53.1142 39.2775 53.0831 39.1667C53.0776 39.1475 53.0648 39.1062 52.9915 38.9835C52.9246 38.8708 52.8742 38.803 52.8083 38.7087C52.713 38.5722 52.6663 38.5044 52.6251 38.4339C52.56 38.3221 52.572 38.3194 52.4419 38.0675C52.3888 37.9649 52.3768 37.9448 52.3503 37.8843C52.3164 37.8074 52.277 37.7158 52.2587 37.6095C52.2404 37.5078 52.2514 37.4437 52.2587 37.3347C52.2733 37.1323 52.2587 37.0526 52.2587 36.8767C52.2587 36.4984 52.3246 35.8004 52.3503 35.5027C52.4144 34.7562 52.3613 34.9687 52.4419 33.6707C52.4639 33.3134 52.484 33.0414 52.4419 32.6631C52.4126 32.3984 52.3842 32.3681 52.3503 32.0219C52.3127 31.6427 52.3338 31.552 52.2587 31.3807C52.1882 31.2195 52.1414 31.2332 51.8923 30.9227C51.6633 30.6378 51.6944 30.6149 51.4343 30.2815C51.2401 30.0323 51.2062 30.0232 51.0679 29.8235C50.9497 29.6531 50.9653 29.6458 50.7931 29.3655C50.5311 28.9386 50.4652 28.9066 50.4267 28.7243C50.4111 28.6482 50.4221 28.6556 50.4267 28.2663C50.4313 27.8504 50.4184 27.8229 50.4267 27.6251C50.4358 27.3906 50.456 27.3759 50.5183 26.8923C50.5632 26.5433 50.5952 26.2923 50.6099 25.9763C50.6154 25.8609 50.6135 25.6529 50.6099 25.2435C50.6016 24.333 50.5897 24.3522 50.6099 24.2359C50.6658 23.9079 50.7546 23.7705 50.7015 23.5031C50.6822 23.4069 50.6575 23.3602 50.6099 23.1367C50.5613 22.9104 50.5668 22.8683 50.5183 22.7703C50.4542 22.642 50.4129 22.6512 50.3351 22.4955C50.2792 22.3828 50.2591 22.2949 50.2435 22.2207C50.2023 22.0292 50.2334 21.9651 50.2435 21.9459C50.2526 21.9285 50.2801 21.8781 50.3351 21.8543C50.4047 21.824 50.4349 21.8735 50.5183 21.8543C50.6016 21.835 50.608 21.7764 50.7015 21.7627C50.7454 21.7562 50.7454 21.7691 50.7931 21.7627C50.8948 21.7498 50.9625 21.6848 50.9763 21.6711C51.0431 21.6042 51.0606 21.5208 51.0679 21.4879C51.1696 21.0134 51.1439 21.4943 51.2511 20.7551C51.3033 20.396 51.3289 20.2164 51.3427 20.0223C51.3921 19.327 51.35 18.7609 51.3427 18.6482C51.3234 18.3661 51.3912 17.452 51.5259 15.6254C51.5259 15.6254 51.6074 14.5281 51.4343 13.3354C51.4096 13.1623 51.3967 13.0753 51.3427 12.969C51.2703 12.8271 51.1851 12.7648 51.1595 12.6026C51.1467 12.5193 51.1558 12.4478 51.1595 12.4194C51.1723 12.3278 51.1934 12.3086 51.2511 12.1446C51.3161 11.9596 51.2978 11.9569 51.3427 11.8698C51.4013 11.7553 51.4434 11.7388 51.4343 11.6866C51.427 11.6454 51.3967 11.6344 51.2511 11.5034C51.1961 11.454 51.1686 11.4292 51.1595 11.4118C51.1128 11.3257 51.1604 11.2524 51.1595 11.137C51.1595 11.0757 51.1457 11.0683 51.0679 10.8622C50.9479 10.5444 50.9598 10.5068 50.8847 10.4042C50.8261 10.3255 50.7656 10.2742 50.7015 10.221C50.5971 10.134 50.5009 10.079 50.4267 10.0378C50.3891 10.0168 50.3278 9.98287 50.2435 9.94623C50.1409 9.90134 50.0658 9.86928 49.9687 9.85463C49.8093 9.83081 49.802 9.88669 49.6939 9.85463C49.5931 9.82532 49.5968 9.77585 49.4191 9.67143C49.3458 9.62838 49.2881 9.60273 49.2359 9.57983C49.1287 9.53219 49.0563 9.50105 48.9611 9.48823C48.8786 9.47723 48.8741 9.49281 48.7779 9.48823C48.5947 9.47998 48.4564 9.41769 48.4115 9.39663C48.2603 9.32609 48.286 9.28671 48.1367 9.21343C48.0707 9.18045 47.9361 9.1145 47.7703 9.12183C47.6127 9.12824 47.6081 9.19327 47.4039 9.21343C47.359 9.21801 47.359 9.21434 47.1291 9.21343C47.0759 9.21343 47.1025 9.21343 46.8543 9.21343C46.3138 9.21343 46.3312 9.21159 46.3047 9.21343C46.0244 9.22991 46.0528 9.27755 45.7551 9.30503C45.4784 9.33067 45.2137 9.31235 45.1139 9.30503C44.9004 9.28945 44.8107 9.26655 44.6559 9.30503C44.5056 9.34258 44.4937 9.38838 44.3811 9.39663C44.2464 9.40579 44.2098 9.34441 43.9231 9.21343C43.6473 9.08793 43.4889 9.05771 43.4651 8.93863C43.4577 8.90107 43.4724 8.90015 43.4651 8.84703C43.4541 8.76458 43.411 8.7252 43.2819 8.57222C43.1637 8.43299 43.1509 8.40734 43.0987 8.38902C43.0785 8.3817 43.0391 8.3707 42.9155 8.38902C42.7286 8.4165 42.6947 8.45956 42.5491 8.48062C42.5381 8.48246 42.5472 8.48062 42.2743 8.48062C42.0709 8.48062 42.0095 8.48154 41.9537 8.43482Z" fill="#ED2082" stroke="white" stroke-width="2" mask="url(#path-2-inside-2_36_53)"/>
</svg>
